<svg width="24" height="24" viewBox="0 0 24 24" fill="none" xmlns="http://www.w3.org/2000/svg">
<g id="Icon_24">
<path id="stat_minus_1" d="M11.9954 16C11.8269 16 11.6714 15.9712 11.5289 15.9136C11.3865 15.8557 11.2469 15.7553 11.1102 15.6125L4.24088 8.42114C4.09425 8.26792 4.01442 8.08153 4.00137 7.86194C3.98833 7.64236 4.06816 7.44231 4.24088 7.26178C4.40733 7.08726 4.59192 7 4.79463 7C4.99735 7 5.18193 7.08726 5.34839 7.26178L11.9954 14.2102L18.6424 7.26178C18.7888 7.10829 18.9668 7.02472 19.1766 7.01106C19.3864 6.99741 19.5775 7.08098 19.7499 7.26178C19.9166 7.43602 20 7.62925 20 7.84146C20 8.05367 19.9166 8.24689 19.7499 8.42114L12.8806 15.6125C12.7439 15.7553 12.6043 15.8557 12.4619 15.9136C12.3194 15.9712 12.1639 16 11.9954 16Z" fill="#909090"/>
</g>
</svg>
