<svg width="33" height="32" viewBox="0 0 33 32" fill="none" xmlns="http://www.w3.org/2000/svg">
<path d="M15.0511 4.10971C11.2883 4.63204 7.4865 6.858 5.55469 10.5947L9.6119 13.6357C10.5319 11.2188 12.786 9.05488 15.8833 8.79226C19.3089 8.50154 21.2716 10.5366 21.2716 10.5366L24.6972 7.11286C23.4998 6.07886 19.9405 3.43136 15.0511 4.10971Z" fill="#E74A37"/>
<path d="M9.68547 18.4403C9.15861 17.0584 9.05483 15.6048 9.36117 14.4119C9.42802 14.1512 9.51084 13.8915 9.60963 13.6347L5.55242 10.5938C4.97467 11.7121 4.56356 12.966 4.37198 14.3499C3.96885 17.2648 4.61346 19.6284 5.59333 21.4473L9.68547 18.4393V18.4403Z" fill="#FFD109"/>
<path d="M20.5972 22.1074C19.1065 23.0445 16.7196 23.8624 13.786 22.6821C11.7165 21.8487 10.3574 20.2041 9.68588 18.4414L5.59375 21.4494C6.6335 23.3798 8.05242 24.6958 8.99638 25.4022C11.2505 27.0894 16.7795 30.048 23.7315 25.8606C24.2892 25.473 24.4279 25.3363 24.7353 25.0563L20.5972 22.1084V22.1074Z" fill="#6EBE53"/>
<path d="M28.0496 13.793L16.5625 13.8249L16.5745 18.4164H23.1602C23.1602 18.7071 22.8279 20.2896 21.5637 21.3885C21.3042 21.6143 20.9769 21.8644 20.5908 22.1076L24.7079 25.0739C29.4606 20.7761 28.0496 13.7939 28.0496 13.7939V13.793Z" fill="#6B8CFF"/>
</svg>
