<svg width="252" height="52" viewBox="0 0 252 52" fill="none" xmlns="http://www.w3.org/2000/svg">
<rect x="0.5" width="251.5" height="52" rx="8" fill="#EFEFEF"/>
<path d="M101.051 14.1097C97.2883 14.632 93.4865 16.858 91.5547 20.5947L95.6119 23.6357C96.5319 21.2188 98.786 19.0549 101.883 18.7923C105.309 18.5015 107.272 20.5366 107.272 20.5366L110.697 17.1129C109.5 16.0789 105.941 13.4314 101.051 14.1097Z" fill="#E74A37"/>
<path d="M95.6855 28.4403C95.1586 27.0584 95.0548 25.6048 95.3612 24.4119C95.428 24.1512 95.5108 23.8915 95.6096 23.6347L91.5524 20.5938C90.9747 21.7121 90.5636 22.966 90.372 24.3499C89.9689 27.2648 90.6135 29.6284 91.5933 31.4473L95.6855 28.4393V28.4403Z" fill="#FFD109"/>
<path d="M106.597 32.1074C105.106 33.0445 102.72 33.8624 99.786 32.6821C97.7165 31.8487 96.3574 30.2041 95.6859 28.4414L91.5938 31.4494C92.6335 33.3798 94.0524 34.6958 94.9964 35.4022C97.2505 37.0894 102.78 40.048 109.731 35.8606C110.289 35.473 110.428 35.3363 110.735 35.0563L106.597 32.1084V32.1074Z" fill="#6EBE53"/>
<path d="M114.05 23.793L102.562 23.8249L102.574 28.4164H109.16C109.16 28.7071 108.828 30.2896 107.564 31.3885C107.304 31.6143 106.977 31.8644 106.591 32.1076L110.708 35.0739C115.461 30.7761 114.05 23.7939 114.05 23.7939V23.793Z" fill="#6B8CFF"/>
<path d="M140.053 18.5527V19.9941C140.053 21.4883 140.053 23.123 139.648 25.3555H141.758V27.166H135.518V33.6348H133.268V27.166H127.168V25.3555H137.381C137.785 23.29 137.82 21.7256 137.82 20.3457H128.838V18.5527H140.053ZM155.627 18.2715V19.3613C155.627 20.3896 155.627 21.6729 155.328 23.2812H157.367V25.0391H142.725V23.2812H153.061C153.324 21.9805 153.377 20.9346 153.395 20.0469H144.518V18.2715H155.627ZM155.557 26.1641V30.6465H146.627V31.7715H155.996V33.4941H144.395V28.959H153.342V27.9043H144.377V26.1641H155.557Z" fill="#262626"/>
</svg>
