<svg width="252" height="52" viewBox="0 0 252 52" fill="none" xmlns="http://www.w3.org/2000/svg">
<rect width="251.5" height="52" rx="8" fill="#FFEA00"/>
<path d="M86.25 16C80.1742 16 75.25 19.8513 75.25 24.6049C75.25 27.6977 77.3372 30.4095 80.468 31.9267C80.2383 32.7755 79.6355 35.0061 79.5139 35.4823C79.3653 36.0737 79.7317 36.0671 79.9749 35.9083C80.164 35.783 82.9892 33.8816 84.2084 33.0612C84.8704 33.1581 85.5526 33.2099 86.25 33.2099C92.3258 33.2099 97.25 29.3585 97.25 24.6049C97.25 19.8513 92.3258 16 86.25 16Z" fill="#381E1F"/>
<path d="M119.461 19.1504C119.443 24.0898 118.248 28.2031 112.271 31.1914L111.041 29.5039C113.713 28.1768 115.304 26.6914 116.209 24.916L111.48 25.3555L111.199 23.4395L116.895 23.0879C117.053 22.4199 117.167 21.6992 117.229 20.9434H112.043V19.1504H119.461ZM123.732 17.6211V23.7559H126V25.6016H123.732V33.582H121.482V17.6211H123.732ZM135.018 19.1504C135 24.0898 133.805 28.2031 127.828 31.1914L126.598 29.5039C129.27 28.1768 130.86 26.6914 131.766 24.916L127.037 25.3555L126.756 23.4395L132.451 23.0879C132.609 22.4199 132.724 21.6992 132.785 20.9434H127.6V19.1504H135.018ZM139.289 17.6211V23.7559H141.557V25.6016H139.289V33.582H137.039V17.6211H139.289ZM149.52 18.4473C152.965 18.4473 155.531 20.1875 155.549 22.8242C155.531 25.2324 153.501 26.8584 150.627 27.1836V29.9082H156.867V31.7539H142.225V29.9082H148.395V27.166C145.529 26.8584 143.508 25.2236 143.508 22.8242C143.508 20.1875 146.074 18.4473 149.52 18.4473ZM149.52 20.2402C147.287 20.2402 145.723 21.2246 145.723 22.8242C145.723 24.5117 147.287 25.4609 149.52 25.4609C151.77 25.4609 153.316 24.5117 153.334 22.8242C153.316 21.2246 151.77 20.2402 149.52 20.2402ZM172.371 26.1113V27.8691H157.746V26.1113H163.934V24.9336H159.574V17.9727H170.666V19.7129H161.824V20.6094H170.297V22.2617H161.824V23.2285H170.807V24.9336H166.184V26.1113H172.371ZM170.578 28.8535V33.6172H168.311V30.6113H159.398V28.8535H170.578Z" fill="#262626"/>
</svg>
