<svg width="43" height="43" viewBox="0 0 43 43" fill="none" xmlns="http://www.w3.org/2000/svg">
<g id="ic:round-plus">
<path id="Vector" d="M23.2917 23.0384H23.0417V23.2884V32.2467C23.0417 32.6556 22.8792 33.0478 22.5901 33.3369C22.301 33.626 21.9089 33.7884 21.5 33.7884C21.0911 33.7884 20.699 33.626 20.4099 33.3369C20.1208 33.0478 19.9583 32.6556 19.9583 32.2467V23.2884V23.0384H19.7083H10.75C10.3411 23.0384 9.94899 22.876 9.65988 22.5869C9.37076 22.2977 9.20833 21.9056 9.20833 21.4967C9.20833 21.0879 9.37076 20.6957 9.65988 20.4066C9.94899 20.1175 10.3411 19.9551 10.75 19.9551H19.7083H19.9583V19.7051V10.7467C19.9583 10.3379 20.1208 9.94574 20.4099 9.65662C20.699 9.3675 21.0911 9.20508 21.5 9.20508C21.9089 9.20508 22.301 9.3675 22.5901 9.65662C22.8792 9.94574 23.0417 10.3379 23.0417 10.7467V19.7051V19.9551H23.2917H32.25C32.6589 19.9551 33.051 20.1175 33.3401 20.4066C33.6292 20.6957 33.7917 21.0879 33.7917 21.4967C33.7917 21.9056 33.6292 22.2978 33.3401 22.5869C33.051 22.876 32.6589 23.0384 32.25 23.0384H23.2917Z" fill="#3366FE" stroke="white" stroke-width="0.5"/>
</g>
</svg>
