<svg width="623" height="385" viewBox="0 0 623 385" fill="none" xmlns="http://www.w3.org/2000/svg">
<path d="M299.877 209.677C251.054 186.513 230.253 128.159 253.417 79.3365C276.58 30.5135 334.935 9.71336 383.758 32.8772C432.58 56.0403 453.381 114.395 430.217 163.217C407.053 212.04 348.699 232.841 299.877 209.677Z" stroke="#E1E4E5" stroke-width="16" stroke-linecap="round" stroke-linejoin="round"/>
<path d="M394.909 270.225L374.687 213.494M313.675 148.157L369.954 94.396M371.229 147.548C372.432 148.808 372.387 150.799 371.127 151.989C369.868 153.192 367.877 153.147 366.686 151.887C365.483 150.628 365.529 148.637 366.788 147.447C368.034 146.243 370.026 146.288 371.229 147.548ZM316.957 90.6676C318.16 91.9271 318.114 93.918 316.855 95.1082C315.595 96.3112 313.605 96.2658 312.414 95.0062C311.224 93.7475 311.257 91.7559 312.516 90.5656C313.775 89.3754 315.767 89.4081 316.957 90.6676Z" stroke="#E1E4E5" stroke-width="16" stroke-linecap="round" stroke-linejoin="round"/>
<path fill-rule="evenodd" clip-rule="evenodd" d="M504.912 318.129L491.841 297.832C484.265 286.064 473.558 276.642 460.923 270.622L416.039 249.238C411.977 247.303 407.53 246.307 403.03 246.327L392.968 246.37L395.823 255.702L356.112 246.183C351.491 245.076 346.96 248.317 346.518 253.049C346.39 254.422 346.628 255.805 347.208 257.057C347.788 258.308 348.689 259.384 349.819 260.174L360.819 267.861C353.963 271.201 353.05 280.603 359.136 285.199L364.727 289.421C359.451 292.715 359.178 300.297 364.202 303.962L372.313 309.877C371.824 312.407 372.191 315.027 373.355 317.325C374.52 319.623 376.416 321.469 378.746 322.57L387.407 326.666C388.69 327.272 390.024 327.763 391.394 328.134L431.415 338.953L476.152 368.667L504.912 318.129Z" fill="#F8AE9D"/>
<path fill-rule="evenodd" clip-rule="evenodd" d="M579.063 375.258L481.97 283.083L415.689 350.485L442.508 375.844L579.063 375.258Z" fill="#3366FE"/>
<path fill-rule="evenodd" clip-rule="evenodd" d="M125.473 308.596C125.114 308.789 124.709 308.877 124.302 308.851C123.896 308.824 123.506 308.683 123.176 308.444C122.845 308.205 122.589 307.878 122.435 307.5C122.28 307.122 122.235 306.708 122.304 306.306L123.875 297.178L117.221 290.71C116.932 290.424 116.729 290.064 116.633 289.67C116.538 289.276 116.554 288.862 116.68 288.477C116.805 288.091 117.035 287.749 117.344 287.487C117.653 287.225 118.029 287.056 118.43 286.996L127.63 285.664L131.739 277.352C131.92 276.987 132.2 276.68 132.546 276.466C132.892 276.251 133.291 276.137 133.698 276.137C134.527 276.137 135.285 276.607 135.656 277.352L139.766 285.664L148.965 286.996C149.366 287.056 149.743 287.225 150.052 287.487C150.361 287.749 150.591 288.091 150.717 288.477C150.842 288.862 150.858 289.276 150.762 289.67C150.667 290.064 150.463 290.424 150.175 290.71L143.517 297.174L145.088 306.303C145.158 306.705 145.113 307.119 144.959 307.498C144.806 307.876 144.549 308.204 144.218 308.443C143.888 308.682 143.497 308.824 143.091 308.851C142.684 308.878 142.278 308.79 141.92 308.596L133.694 304.29L125.473 308.596ZM168.927 308.596C168.568 308.788 168.163 308.877 167.757 308.85C167.351 308.823 166.961 308.682 166.631 308.443C166.3 308.204 166.043 307.877 165.889 307.499C165.735 307.122 165.689 306.708 165.758 306.306L167.33 297.177L160.676 290.709C160.387 290.424 160.183 290.064 160.088 289.669C159.992 289.275 160.008 288.862 160.134 288.476C160.259 288.091 160.489 287.748 160.799 287.486C161.108 287.225 161.484 287.055 161.885 286.996L171.084 285.664L175.193 277.351C175.375 276.986 175.654 276.68 176 276.465C176.346 276.25 176.745 276.137 177.152 276.136C177.982 276.136 178.74 276.606 179.111 277.351L183.221 285.664L192.42 286.996C192.82 287.055 193.197 287.225 193.506 287.486C193.815 287.748 194.046 288.091 194.171 288.476C194.296 288.862 194.312 289.275 194.217 289.669C194.121 290.064 193.917 290.423 193.629 290.709L186.971 297.173L188.542 306.302C188.612 306.704 188.567 307.118 188.414 307.497C188.26 307.875 188.003 308.203 187.672 308.443C187.343 308.682 186.952 308.823 186.546 308.85C186.139 308.877 185.733 308.789 185.375 308.596L177.148 304.29L168.927 308.596ZM212.381 308.596C212.023 308.788 211.617 308.877 211.211 308.85C210.805 308.823 210.415 308.682 210.085 308.443C209.754 308.204 209.498 307.877 209.343 307.499C209.189 307.122 209.144 306.708 209.213 306.306L210.784 297.177L204.13 290.709C203.841 290.423 203.638 290.064 203.542 289.669C203.447 289.275 203.462 288.862 203.588 288.476C203.713 288.091 203.943 287.748 204.253 287.486C204.562 287.225 204.938 287.055 205.339 286.996L214.538 285.664L218.648 277.351C218.83 276.987 219.109 276.68 219.455 276.466C219.801 276.252 220.2 276.138 220.607 276.138C221.014 276.138 221.413 276.252 221.759 276.466C222.105 276.68 222.384 276.987 222.566 277.351L226.675 285.664L235.875 286.996C236.275 287.055 236.651 287.225 236.961 287.486C237.27 287.748 237.5 288.091 237.625 288.476C237.751 288.862 237.767 289.275 237.671 289.669C237.575 290.064 237.372 290.424 237.083 290.709L230.425 297.173L231.996 306.302C232.066 306.704 232.022 307.118 231.868 307.497C231.714 307.875 231.457 308.203 231.126 308.443C230.797 308.682 230.406 308.823 230 308.85C229.593 308.877 229.187 308.789 228.829 308.596L220.603 304.29L212.381 308.596ZM255.835 308.596C255.477 308.788 255.071 308.877 254.665 308.85C254.259 308.823 253.869 308.682 253.539 308.443C253.209 308.204 252.952 307.877 252.798 307.499C252.644 307.122 252.599 306.708 252.668 306.306L254.239 297.177L247.584 290.709C247.296 290.423 247.092 290.064 246.996 289.669C246.901 289.275 246.917 288.862 247.042 288.476C247.167 288.091 247.398 287.748 247.707 287.486C248.016 287.225 248.393 287.055 248.793 286.996L257.993 285.664L262.102 277.351C262.284 276.987 262.563 276.68 262.909 276.465C263.255 276.25 263.654 276.137 264.061 276.136C264.89 276.136 265.648 276.606 266.02 277.351L270.129 285.664L279.329 286.996C279.729 287.055 280.106 287.225 280.415 287.486C280.724 287.748 280.954 288.091 281.079 288.476C281.205 288.862 281.221 289.275 281.125 289.669C281.03 290.063 280.827 290.423 280.538 290.709L273.88 297.173L275.451 306.302C275.521 306.704 275.476 307.118 275.322 307.497C275.169 307.875 274.912 308.203 274.581 308.443C274.252 308.682 273.861 308.823 273.454 308.85C273.048 308.877 272.642 308.789 272.283 308.596L264.058 304.29L255.835 308.596ZM299.289 308.596C298.931 308.788 298.525 308.877 298.119 308.85C297.713 308.823 297.323 308.682 296.993 308.443C296.663 308.204 296.406 307.877 296.252 307.499C296.098 307.121 296.053 306.708 296.122 306.306L297.693 297.177L291.038 290.709C290.75 290.423 290.546 290.063 290.451 289.669C290.355 289.275 290.371 288.862 290.496 288.476C290.622 288.091 290.852 287.748 291.161 287.486C291.471 287.225 291.847 287.055 292.248 286.996L301.447 285.664L305.557 277.351C305.738 276.986 306.017 276.68 306.363 276.465C306.709 276.25 307.108 276.137 307.516 276.136C308.345 276.136 309.103 276.606 309.474 277.351L313.583 285.664L322.783 286.996C323.184 287.055 323.56 287.225 323.869 287.486C324.179 287.748 324.409 288.091 324.534 288.476C324.66 288.862 324.675 289.275 324.58 289.669C324.484 290.063 324.281 290.423 323.992 290.709L317.334 297.173L318.906 306.302C318.975 306.704 318.931 307.118 318.777 307.497C318.623 307.875 318.366 308.203 318.036 308.443C317.706 308.682 317.315 308.823 316.909 308.85C316.502 308.877 316.096 308.789 315.737 308.596L307.512 304.29L299.289 308.596ZM24.5572 276.515H28.8584C29.3563 276.515 29.8336 276.713 30.1857 277.065C30.5377 277.417 30.7357 277.895 30.7361 278.392V282.693C30.7357 283.191 30.5377 283.668 30.1857 284.02C29.8336 284.372 29.3563 284.57 28.8584 284.571H24.5572C24.0598 284.569 23.5834 284.37 23.2318 284.018C22.8802 283.667 22.6819 283.19 22.6802 282.693V278.392C22.6715 277.361 23.5175 276.515 24.5572 276.515ZM39.4692 276.515H43.7704C44.2676 276.517 44.7439 276.715 45.0955 277.066C45.4471 277.418 45.6455 277.894 45.6473 278.392V282.693C45.6471 283.191 45.4493 283.668 45.0974 284.02C44.7455 284.372 44.2682 284.57 43.7704 284.571H39.4692C38.9719 284.568 38.4956 284.37 38.144 284.018C37.7925 283.666 37.5941 283.19 37.5923 282.693V278.392C37.5941 277.894 37.7925 277.418 38.1441 277.066C38.4957 276.715 38.972 276.517 39.4692 276.515ZM54.3916 276.515H58.692C59.1894 276.517 59.6659 276.715 60.0176 277.067C60.3694 277.418 60.5678 277.895 60.5697 278.392V282.693C60.5693 283.191 60.3713 283.668 60.0193 284.02C59.6672 284.372 59.1898 284.57 58.692 284.571H54.3916C53.8941 284.569 53.4176 284.37 53.0659 284.018C52.7142 283.667 52.5157 283.19 52.5138 282.693V278.392C52.5051 277.361 53.3511 276.515 54.3916 276.515ZM69.3036 276.515H73.604C74.1014 276.517 74.5779 276.715 74.9297 277.067C75.2814 277.418 75.4798 277.895 75.4817 278.392V282.693C75.4813 283.191 75.2833 283.668 74.9313 284.02C74.5792 284.372 74.1019 284.57 73.604 284.571H69.3028C68.8041 284.57 68.3258 284.373 67.9724 284.021C67.619 283.669 67.4194 283.191 67.4171 282.693V278.392C67.4223 277.894 67.623 277.419 67.9759 277.067C68.3288 276.716 68.8056 276.518 69.3036 276.515ZM84.2164 276.515H88.5168C89.0155 276.515 89.4939 276.712 89.8474 277.064C90.2009 277.416 90.4008 277.893 90.4033 278.392V282.693C90.403 282.94 90.3539 283.185 90.2589 283.413C90.1639 283.641 90.0247 283.849 89.8495 284.023C89.6743 284.197 89.4664 284.336 89.2377 284.429C89.009 284.523 88.764 284.571 88.5168 284.571H84.2164C83.7189 284.569 83.2424 284.37 82.8907 284.018C82.539 283.667 82.3405 283.19 82.3386 282.693V278.392C82.3405 277.894 82.539 277.418 82.8907 277.066C83.2425 276.715 83.719 276.516 84.2164 276.515ZM40.0165 292.775H44.3177C44.8151 292.777 45.2915 292.976 45.6431 293.328C45.9947 293.679 46.193 294.156 46.1947 294.653V298.963C46.1928 299.46 45.9944 299.937 45.6428 300.288C45.2912 300.64 44.8149 300.838 44.3177 300.84H40.0165C39.5187 300.84 39.0413 300.642 38.6893 300.29C38.3372 299.938 38.1392 299.461 38.1388 298.963V294.662C38.1373 294.414 38.1848 294.169 38.2785 293.94C38.3723 293.711 38.5104 293.503 38.6849 293.328C38.8595 293.152 39.067 293.013 39.2955 292.919C39.5241 292.824 39.7691 292.775 40.0165 292.775ZM54.9285 292.775H59.2289C59.7263 292.777 60.2029 292.976 60.5546 293.327C60.9063 293.679 61.1048 294.156 61.1067 294.653V298.963C61.1048 299.46 60.9063 299.937 60.5546 300.289C60.2028 300.64 59.7263 300.838 59.2289 300.84H54.9285C54.4312 300.838 53.9546 300.64 53.6029 300.289C53.2511 299.937 53.0527 299.46 53.0508 298.963V294.662C53.0493 294.414 53.0968 294.169 53.1905 293.94C53.2843 293.711 53.4224 293.503 53.5969 293.328C53.7715 293.152 53.979 293.013 54.2075 292.919C54.4361 292.824 54.6811 292.775 54.9285 292.775ZM69.8413 292.775H74.1417C74.6405 292.775 75.1191 292.973 75.4726 293.325C75.8261 293.677 76.0259 294.154 76.0282 294.653V298.963C76.0257 299.462 75.8258 299.939 75.4723 300.291C75.1188 300.643 74.6404 300.84 74.1417 300.84H69.8413C69.344 300.838 68.8674 300.64 68.5157 300.289C68.1639 299.937 67.9655 299.46 67.9636 298.963V294.662C67.9636 294.163 68.1611 293.685 68.513 293.331C68.8649 292.978 69.3425 292.778 69.8413 292.775ZM54.3916 259.046H58.692C59.1893 259.048 59.6658 259.246 60.0176 259.598C60.3694 259.949 60.5678 260.426 60.5697 260.923V265.224C60.5693 265.722 60.3713 266.2 60.0193 266.552C59.6672 266.904 59.1898 267.102 58.692 267.102H54.3916C53.8941 267.1 53.4176 266.902 53.0659 266.55C52.7142 266.198 52.5157 265.722 52.5138 265.224V260.923C52.5051 259.892 53.3511 259.046 54.3916 259.046ZM69.3036 259.046H73.604C74.1013 259.048 74.5778 259.246 74.9296 259.598C75.2814 259.949 75.4798 260.426 75.4817 260.923V265.224C75.4813 265.722 75.2833 266.2 74.9313 266.552C74.5792 266.904 74.1019 267.102 73.604 267.102H69.3028C68.8041 267.102 68.3258 266.904 67.9724 266.552C67.619 266.2 67.4194 265.723 67.4171 265.224V260.923C67.4225 260.425 67.6233 259.95 67.9762 259.599C68.3291 259.247 68.8058 259.049 69.3036 259.046ZM518.134 229.269H522.874C523.422 229.27 523.948 229.488 524.336 229.875C524.724 230.263 524.942 230.789 524.942 231.337V236.077C524.942 236.625 524.724 237.151 524.336 237.539C523.948 237.927 523.422 238.145 522.874 238.146H518.134C517.586 238.144 517.061 237.925 516.674 237.538C516.286 237.15 516.067 236.625 516.065 236.077V231.337C516.056 230.201 516.988 229.269 518.134 229.269ZM534.566 229.269H539.305C539.853 229.271 540.378 229.49 540.765 229.877C541.153 230.265 541.371 230.789 541.373 231.337V236.077C541.373 236.625 541.155 237.151 540.767 237.539C540.379 237.927 539.854 238.145 539.305 238.146H534.566C534.018 238.143 533.493 237.925 533.105 237.537C532.717 237.15 532.499 236.625 532.497 236.077V231.337C532.499 230.789 532.718 230.264 533.105 229.877C533.493 229.489 534.018 229.271 534.566 229.269ZM551.008 229.269H555.747C556.295 229.271 556.82 229.49 557.208 229.877C557.595 230.265 557.814 230.789 557.816 231.337V236.077C557.815 236.625 557.597 237.151 557.21 237.539C556.822 237.927 556.296 238.145 555.747 238.146H551.008C550.46 238.143 549.935 237.925 549.547 237.537C549.16 237.15 548.941 236.625 548.939 236.077V231.337C548.93 230.201 549.862 229.269 551.008 229.269ZM567.439 229.269H572.179C572.727 229.271 573.252 229.49 573.639 229.877C574.027 230.265 574.245 230.789 574.248 231.337V236.077C574.247 236.625 574.029 237.151 573.641 237.539C573.253 237.927 572.727 238.145 572.179 238.146H567.439C566.89 238.145 566.363 237.928 565.973 237.54C565.584 237.152 565.364 236.626 565.361 236.077V231.337C565.371 230.201 566.303 229.269 567.439 229.269ZM583.872 229.269H588.612C589.161 229.269 589.688 229.487 590.078 229.874C590.467 230.262 590.687 230.788 590.69 231.337V236.077C590.69 236.349 590.636 236.619 590.531 236.87C590.426 237.122 590.273 237.35 590.08 237.542C589.887 237.734 589.658 237.886 589.406 237.99C589.154 238.094 588.884 238.146 588.612 238.146H583.872C583.324 238.143 582.799 237.925 582.412 237.537C582.025 237.149 581.806 236.625 581.804 236.077V231.337C581.806 230.789 582.025 230.265 582.412 229.877C582.8 229.49 583.324 229.271 583.872 229.269ZM535.168 247.187H539.907C540.455 247.189 540.981 247.407 541.368 247.795C541.756 248.183 541.974 248.708 541.976 249.256V254.005C541.974 254.553 541.755 255.078 541.368 255.465C540.98 255.853 540.455 256.071 539.907 256.073H535.168C534.62 256.073 534.094 255.855 533.706 255.467C533.318 255.079 533.1 254.553 533.1 254.005V249.265C533.098 248.993 533.15 248.723 533.254 248.47C533.357 248.218 533.509 247.989 533.701 247.796C533.893 247.602 534.122 247.449 534.374 247.345C534.625 247.24 534.895 247.187 535.168 247.187ZM551.6 247.187H556.339C556.887 247.189 557.412 247.408 557.8 247.795C558.187 248.183 558.406 248.708 558.408 249.256V254.005C558.405 254.553 558.187 255.078 557.799 255.465C557.412 255.852 556.887 256.071 556.339 256.073H551.6C551.052 256.071 550.527 255.853 550.139 255.465C549.752 255.078 549.533 254.553 549.531 254.005V249.265C549.529 248.993 549.582 248.723 549.685 248.47C549.788 248.218 549.941 247.989 550.133 247.796C550.325 247.602 550.554 247.449 550.806 247.345C551.057 247.24 551.327 247.187 551.6 247.187ZM568.032 247.187H572.771C573.321 247.187 573.848 247.405 574.238 247.792C574.627 248.18 574.847 248.706 574.85 249.256V254.005C574.847 254.554 574.627 255.08 574.237 255.468C573.848 255.855 573.321 256.073 572.771 256.073H568.032C567.484 256.071 566.959 255.852 566.572 255.465C566.185 255.078 565.966 254.553 565.964 254.005V249.265C565.964 248.716 566.181 248.189 566.569 247.799C566.957 247.41 567.483 247.19 568.032 247.187ZM551.008 210.02H555.747C556.295 210.022 556.82 210.241 557.208 210.628C557.595 211.016 557.814 211.541 557.816 212.089V216.828C557.815 217.377 557.597 217.903 557.209 218.29C556.822 218.678 556.296 218.896 555.747 218.897H551.008C550.46 218.894 549.935 218.676 549.548 218.289C549.16 217.901 548.941 217.376 548.939 216.828V212.089C548.93 210.952 549.862 210.02 551.008 210.02ZM567.439 210.02H572.179C572.727 210.022 573.252 210.241 573.639 210.628C574.027 211.016 574.246 211.541 574.248 212.089V216.828C574.247 217.377 574.029 217.902 573.641 218.29C573.253 218.678 572.727 218.896 572.179 218.897H567.439C566.89 218.896 566.363 218.679 565.974 218.291C565.584 217.904 565.364 217.378 565.361 216.828V212.089C565.371 210.952 566.303 210.02 567.439 210.02ZM128.085 68.7097H132.325C132.816 68.7099 133.287 68.905 133.634 69.2519C133.981 69.5989 134.177 70.0695 134.177 70.5604V74.8018C134.177 75.2927 133.981 75.7634 133.634 76.1105C133.287 76.4577 132.816 76.6529 132.325 76.6533H128.085C127.594 76.6514 127.125 76.4557 126.778 76.1089C126.431 75.7621 126.235 75.2923 126.233 74.8018V70.5604C126.225 69.5438 127.059 68.7097 128.085 68.7097ZM142.789 68.7089H147.03C147.521 68.711 147.99 68.9068 148.337 69.2536C148.684 69.6003 148.879 70.0701 148.881 70.5604V74.8018C148.881 75.2925 148.685 75.763 148.338 76.11C147.992 76.4569 147.521 76.6521 147.03 76.6525H142.789C142.299 76.6506 141.829 76.455 141.482 76.1084C141.135 75.7618 140.94 75.2922 140.937 74.8018V70.5604C140.94 70.07 141.135 69.6003 141.482 69.2535C141.829 68.9068 142.299 68.711 142.789 68.7089ZM157.503 68.7097H161.745C162.235 68.7116 162.705 68.9072 163.052 69.2538C163.398 69.6004 163.594 70.0701 163.596 70.5604V74.8018C163.596 75.2927 163.4 75.7632 163.053 76.1103C162.706 76.4574 162.236 76.6526 161.745 76.6533H157.503C157.013 76.6512 156.543 76.4554 156.197 76.1086C155.85 75.7619 155.655 75.2922 155.653 74.8018V70.5604C155.644 69.5438 156.478 68.7097 157.503 68.7097ZM172.208 68.7097H176.45C176.94 68.7116 177.41 68.9072 177.756 69.2539C178.103 69.6005 178.298 70.0701 178.3 70.5604V74.8018C178.3 75.2926 178.105 75.7632 177.758 76.1103C177.411 76.4574 176.94 76.6526 176.45 76.6533H172.208C171.716 76.6531 171.245 76.4582 170.896 76.1113C170.548 75.7644 170.351 75.2936 170.348 74.8018V70.5604C170.354 70.0696 170.552 69.6007 170.9 69.2546C171.248 68.9085 171.717 68.7128 172.208 68.7097ZM186.914 68.7089H191.155C191.647 68.7091 192.119 68.904 192.467 69.251C192.816 69.5979 193.012 70.0687 193.015 70.5604V74.8018C193.014 75.0455 192.966 75.2867 192.872 75.5116C192.779 75.7365 192.641 75.9407 192.469 76.1126C192.296 76.2845 192.091 76.4206 191.866 76.5133C191.64 76.6059 191.399 76.6532 191.155 76.6525H186.914C186.424 76.6506 185.954 76.455 185.607 76.1084C185.26 75.7618 185.065 75.2922 185.062 74.8018V70.5604C185.065 70.07 185.26 69.6003 185.607 69.2535C185.954 68.9068 186.423 68.711 186.914 68.7089ZM143.328 84.7442H147.57C148.06 84.7461 148.53 84.9418 148.877 85.2886C149.224 85.6354 149.419 86.1052 149.421 86.5957V90.8451C149.419 91.3356 149.224 91.8054 148.877 92.1522C148.53 92.499 148.06 92.6947 147.57 92.6966H143.328C142.837 92.6961 142.367 92.5009 142.02 92.1538C141.673 91.8066 141.478 91.3359 141.478 90.8451V86.6045C141.476 86.3605 141.523 86.1187 141.615 85.8929C141.707 85.6671 141.843 85.4619 142.016 85.289C142.188 85.116 142.392 84.9789 142.617 84.8854C142.843 84.7919 143.084 84.7439 143.328 84.7442ZM158.033 84.7442H162.275C162.765 84.7461 163.235 84.9418 163.581 85.2886C163.928 85.6355 164.124 86.1053 164.125 86.5957V90.8451C164.124 91.3355 163.928 91.8053 163.581 92.1521C163.235 92.499 162.765 92.6947 162.275 92.6966H158.033C157.543 92.6949 157.073 92.4993 156.726 92.1524C156.379 91.8056 156.183 91.3356 156.182 90.8451V86.6045C156.18 86.3605 156.227 86.1187 156.319 85.8929C156.412 85.6671 156.548 85.4618 156.72 85.2889C156.892 85.116 157.097 84.9788 157.322 84.8854C157.548 84.7919 157.789 84.7439 158.033 84.7442ZM172.739 84.7442H176.979C177.471 84.7442 177.943 84.939 178.292 85.286C178.64 85.6329 178.837 86.1039 178.84 86.5957V90.8451C178.837 91.3369 178.64 91.8079 178.292 92.1548C177.943 92.5018 177.471 92.6966 176.979 92.6966H172.739C172.248 92.6949 171.778 92.4993 171.431 92.1524C171.085 91.8056 170.889 91.3356 170.887 90.8451V86.6045C170.887 86.1126 171.082 85.6408 171.429 85.2922C171.776 84.9436 172.247 84.7465 172.739 84.7442ZM157.503 51.4834H161.745C162.235 51.4853 162.705 51.681 163.052 52.0278C163.399 52.3746 163.594 52.8444 163.596 53.3349V57.5755C163.596 58.0664 163.401 58.5371 163.054 58.8842C162.706 59.2313 162.236 59.4265 161.745 59.427H157.503C157.013 59.4251 156.543 59.2294 156.197 58.8825C155.85 58.5357 155.654 58.0659 155.653 57.5755V53.3349C155.644 52.3175 156.478 51.4834 157.503 51.4834ZM172.208 51.4834H176.45C176.94 51.4853 177.41 51.681 177.756 52.0278C178.103 52.3746 178.299 52.8445 178.3 53.3349V57.5755C178.3 58.0663 178.105 58.537 177.758 58.8842C177.411 59.2313 176.94 59.4265 176.45 59.427H172.208C171.716 59.427 171.245 59.2322 170.896 58.8852C170.547 58.5383 170.35 58.0674 170.348 57.5755V53.3349C170.353 52.844 170.551 52.3749 170.899 52.0286C171.247 51.6823 171.717 51.4865 172.208 51.4834Z" fill="#FFE410"/>
<path fill-rule="evenodd" clip-rule="evenodd" d="M479.712 90.0259C479.712 83.6988 484.841 78.5698 491.167 78.5698H600.744C607.071 78.5698 612.2 83.6988 612.2 90.0259C612.2 96.3522 607.071 101.481 600.744 101.481H491.167C484.841 101.481 479.712 96.3522 479.712 90.0259ZM193.607 133.616C193.607 127.564 188.702 122.658 182.65 122.658H33.2265C27.175 122.658 22.2691 127.564 22.2691 133.616C22.2691 139.667 27.175 144.573 33.2265 144.573H182.65C188.702 144.573 193.607 139.667 193.607 133.616ZM479.712 129.408C479.712 123.082 484.841 117.953 491.167 117.953H551.933C558.259 117.953 563.388 123.082 563.388 129.408C563.388 135.735 558.259 140.864 551.933 140.864H491.167C484.841 140.864 479.712 135.735 479.712 129.408ZM150.772 172.083C150.772 165.755 145.644 160.626 139.317 160.626H31.7327C25.4056 160.626 20.2767 165.755 20.2767 172.083C20.2767 178.409 25.4056 183.538 31.7327 183.538H139.317C145.644 183.538 150.772 178.409 150.772 172.083ZM479.712 167.449C479.712 161.673 484.395 156.99 490.171 156.99H552.929C558.705 156.99 563.388 161.673 563.388 167.449C563.388 173.226 558.705 177.909 552.929 177.909H490.171C484.395 177.909 479.712 173.226 479.712 167.449ZM150.772 210.123C150.772 204.346 146.089 199.663 140.313 199.663H30.7361C24.9595 199.663 20.2759 204.346 20.2759 210.123C20.2759 215.899 24.9595 220.582 30.7361 220.582H140.313C146.089 220.582 150.772 215.899 150.772 210.123Z" fill="white" stroke="#E1E4E5" stroke-width="4" stroke-linecap="round" stroke-linejoin="round"/>
<path d="M289.174 205.701C289.174 177.442 266.266 154.535 238.008 154.535C209.75 154.535 186.842 177.442 186.842 205.701C186.842 233.959 209.75 256.867 238.008 256.867C266.266 256.867 289.174 233.959 289.174 205.701Z" fill="#3366FE"/>
<path d="M254.638 196.504L232.328 218.552L218.941 205.323" stroke="white" stroke-width="9.368" stroke-linecap="round" stroke-linejoin="round"/>
</svg>
