<svg width="461" height="398" viewBox="0 0 461 398" fill="none" xmlns="http://www.w3.org/2000/svg">
<path d="M230.581 386.066C347.873 386.066 442.958 380.407 442.958 373.425C442.958 366.443 347.873 360.784 230.581 360.784C113.289 360.784 18.2045 366.443 18.2045 373.425C18.2045 380.407 113.289 386.066 230.581 386.066Z" fill="url(#paint0_linear_543_20562)"/>
<path fill-rule="evenodd" clip-rule="evenodd" d="M179.089 109.457C157.197 109.457 139.289 127.254 139.289 149.01C139.289 170.766 157.197 188.563 179.089 188.563C183.48 188.563 187.077 192.138 187.077 196.503C187.077 200.867 183.48 204.442 179.089 204.442H158.263C147.583 204.442 138.844 213.126 138.844 223.739C138.844 234.352 147.583 243.037 158.263 243.037C167.499 243.037 175.057 250.548 175.057 259.727C175.057 276.474 188.844 290.177 205.696 290.177H385.557C407.449 290.177 425.357 272.379 425.357 250.623C425.357 228.867 407.449 211.07 385.557 211.07H381.707C377.315 211.07 373.719 207.5 373.719 203.131C373.719 198.767 377.311 195.191 381.707 195.191H407.622C418.301 195.191 427.04 186.507 427.04 175.894C427.04 165.294 418.323 156.618 407.661 156.596H386.809C377.573 156.596 370.016 149.085 370.016 139.906C370.016 123.159 356.228 109.457 339.376 109.457H179.089Z" fill="url(#paint1_linear_543_20562)"/>
<path fill-rule="evenodd" clip-rule="evenodd" d="M97.7782 37.5029C80.4689 37.5029 66.3088 51.5924 66.3088 68.816C66.3088 86.0396 80.4689 100.129 97.7782 100.129C101.251 100.129 104.095 102.959 104.095 106.414C104.095 109.87 101.251 112.699 97.7782 112.699H81.3117C72.8678 112.699 65.9578 119.575 65.9578 127.977C65.9578 136.379 72.8678 143.254 81.3117 143.254C88.6146 143.254 94.5905 149.2 94.5905 156.467C94.5905 169.726 105.492 180.573 118.817 180.573H261.033C278.343 180.573 292.503 166.483 292.503 149.26C292.503 132.036 278.343 117.947 261.033 117.947H257.989C254.516 117.947 251.672 115.121 251.672 111.662C251.672 108.206 254.513 105.377 257.989 105.377H278.479C286.923 105.377 293.833 98.501 293.833 90.0991C293.833 81.7074 286.941 74.8392 278.511 74.8216H262.023C254.72 74.8216 248.744 68.8754 248.744 61.609C248.744 48.3503 237.842 37.5029 224.518 37.5029H97.7782Z" fill="url(#paint2_linear_543_20562)"/>
<path d="M315.481 23.66C315.055 23.5069 314.623 23.3682 314.187 23.2441C314.043 23.2023 313.9 23.1588 313.756 23.122C313.446 23.0437 313.135 22.9693 312.823 22.8986C312.674 22.8651 312.525 22.8375 312.373 22.8091C312.061 22.751 311.747 22.6986 311.433 22.6518C311.248 22.6261 311.064 22.6027 310.88 22.5815C310.745 22.5656 310.611 22.5505 310.476 22.5372C310.264 22.5179 310.052 22.502 309.84 22.4895C309.728 22.4828 309.616 22.4719 309.504 22.4677C309.177 22.4518 308.848 22.4434 308.517 22.4434H156.791C155.748 22.4404 154.707 22.5193 153.676 22.6794C153.339 22.7314 153.004 22.7914 152.669 22.8593C144.011 24.6297 137.346 31.8785 136.438 40.8292C136.368 41.525 136.332 42.224 136.333 42.9234V353.364C136.333 362.228 141.958 369.775 149.83 372.627C149.865 372.64 149.901 372.651 149.936 372.662C150.326 372.8 150.723 372.926 151.123 373.04C151.268 373.082 151.41 373.126 151.557 373.163C151.711 373.203 151.864 373.24 152.018 373.277C152.173 373.314 152.332 373.351 152.489 373.387C152.638 373.419 152.788 373.448 152.939 373.476C153.251 373.534 153.564 373.587 153.878 373.633C154.06 373.66 154.244 373.682 154.43 373.704C154.564 373.719 154.699 373.735 154.834 373.747C155.045 373.767 155.258 373.782 155.471 373.796C155.582 373.802 155.695 373.813 155.806 373.817C156.133 373.833 156.462 373.842 156.794 373.842H308.521C309.227 373.842 309.925 373.807 310.614 373.736C320.242 372.758 327.898 365.094 328.877 355.454C328.947 354.765 328.981 354.066 328.981 353.359V42.9234C328.977 34.0589 323.352 26.5113 315.481 23.66Z" fill="white" stroke="#E1E4E5" stroke-width="4"/>
<path d="M232.655 357.159C239.169 357.159 244.45 351.885 244.45 345.38C244.45 338.875 239.169 333.601 232.655 333.601C226.141 333.601 220.86 338.875 220.86 345.38C220.86 351.885 226.141 357.159 232.655 357.159Z" fill="white" stroke="#E1E4E5" stroke-width="4"/>
<path d="M251.33 39.1279H214.963C214.42 39.1279 213.98 39.5673 213.98 40.1093C213.98 40.6514 214.42 41.0908 214.963 41.0908H251.33C251.873 41.0908 252.313 40.6514 252.313 40.1093C252.313 39.5673 251.873 39.1279 251.33 39.1279Z" fill="white" stroke="#E1E4E5" stroke-width="2.346"/>
<path d="M298.461 53.8516H167.831C158.578 53.8516 151.076 61.3433 151.076 70.5849V297.236C151.076 306.478 158.578 313.97 167.831 313.97H298.461C307.715 313.97 315.217 306.478 315.217 297.236V70.5849C315.217 61.3433 307.715 53.8516 298.461 53.8516Z" fill="white" stroke="#E1E4E5" stroke-width="4"/>
<path d="M356.118 157.983H183.185C175.353 157.983 169.004 164.324 169.004 172.145V260.119C169.004 267.94 175.353 274.28 183.185 274.28H356.118C363.949 274.28 370.298 267.94 370.298 260.119V172.145C370.298 164.324 363.949 157.983 356.118 157.983Z" fill="#3366FE"/>
<path d="M341.065 190.381H298.592M341.065 212.304H298.592M278.548 190.381H192.647M278.548 212.304H192.647M278.548 231.844H192.647" stroke="white" stroke-width="11.609" stroke-miterlimit="10" stroke-linecap="round" stroke-linejoin="round"/>
<path fill-rule="evenodd" clip-rule="evenodd" d="M318.728 254.619C317.41 253.343 316.362 251.816 315.647 250.127C314.933 248.438 314.566 246.623 314.568 244.79C314.568 240.802 316.274 237.211 318.998 234.706C316.838 233.058 314.195 232.167 311.477 232.171C304.624 232.171 299.069 237.719 299.069 244.562C299.069 251.406 304.624 256.954 311.477 256.954C314.184 256.954 316.688 256.088 318.728 254.619Z" fill="white"/>
<path d="M329.54 256.835C336.431 256.835 342.017 251.257 342.017 244.375C342.017 237.493 336.431 231.915 329.54 231.915C322.649 231.915 317.063 237.493 317.063 244.375C317.063 251.257 322.649 256.835 329.54 256.835Z" fill="white"/>
<path d="M67.4281 204.837L57.4175 214.825L52.5533 209.982M84.3889 202.327H103.658M84.3889 216.968H117.062M67.4281 239.043L57.4175 249.031L52.5533 244.188M84.3889 236.63H103.658M84.3889 250.853H117.062M67.4281 271.563L57.4175 281.552L52.5533 276.71M84.3889 269.26H103.658M84.3889 283.483H117.062M67.4281 305.77L57.4175 315.758L52.5533 310.915M84.3889 303.145H103.658M84.3889 317.787H117.062" stroke="#E1E4E5" stroke-width="5.5" stroke-linecap="round" stroke-linejoin="round"/>
<path d="M218.772 76.4277H79.3622C70.1084 76.4277 62.6067 83.9195 62.6067 93.1611V125.921C62.6067 135.162 70.1084 142.654 79.3622 142.654H218.772C228.026 142.654 235.527 135.162 235.527 125.921V93.1611C235.527 83.9195 228.026 76.4277 218.772 76.4277Z" fill="white" stroke="#E1E4E5" stroke-width="4"/>
<path d="M213.97 97.0405H124.528C122.357 97.0405 120.597 98.7985 120.597 100.967C120.597 103.136 122.357 104.893 124.528 104.893H213.97C216.142 104.893 217.902 103.136 217.902 100.967C217.902 98.7985 216.142 97.0405 213.97 97.0405Z" fill="#E1E4E5"/>
<path d="M179.57 113.727H124.528C122.357 113.727 120.597 115.485 120.597 117.654C120.597 119.822 122.357 121.58 124.528 121.58H179.57C181.741 121.58 183.501 119.822 183.501 117.654C183.501 115.485 181.741 113.727 179.57 113.727Z" fill="#E1E4E5"/>
<path fill-rule="evenodd" clip-rule="evenodd" d="M90.0121 126.235C80.846 126.235 73.4141 118.708 73.4141 109.426C73.4141 100.144 80.846 92.6177 90.0121 92.6177C99.1774 92.6177 106.609 100.144 106.609 109.426C106.609 118.708 99.1774 126.235 90.0121 126.235Z" fill="#3366FE"/>
<path d="M95.8556 106.625L88.8442 114.096L84.6353 109.614" stroke="white" stroke-width="3.568" stroke-linecap="round" stroke-linejoin="round"/>
<path fill-rule="evenodd" clip-rule="evenodd" d="M417.649 114.316H415.307C414.741 114.316 414.285 113.856 414.285 113.295V110.957C414.285 110.391 414.746 109.936 415.307 109.936H417.649C418.21 109.936 418.671 110.396 418.671 110.957V113.295C418.676 113.856 418.215 114.316 417.649 114.316ZM409.53 114.316H407.188C406.627 114.316 406.166 113.856 406.166 113.295V110.957C406.166 110.391 406.627 109.936 407.188 109.936H409.53C410.091 109.936 410.552 110.396 410.552 110.957V113.295C410.552 113.856 410.091 114.316 409.53 114.316ZM401.407 114.316H399.065C398.504 114.316 398.043 113.856 398.043 113.295V110.957C398.043 110.391 398.504 109.936 399.065 109.936H401.407C401.968 109.936 402.429 110.396 402.429 110.957V113.295C402.433 113.856 401.972 114.316 401.407 114.316ZM393.288 114.316H390.946C390.385 114.316 389.924 113.856 389.924 113.295V110.957C389.924 110.391 390.385 109.936 390.946 109.936H393.288C393.854 109.936 394.314 110.396 394.314 110.957V113.295C394.311 113.566 394.202 113.824 394.01 114.015C393.818 114.206 393.559 114.314 393.288 114.316ZM385.169 114.316H382.827C382.261 114.316 381.8 113.856 381.8 113.295V110.957C381.8 110.391 382.261 109.936 382.827 109.936H385.169C385.73 109.936 386.191 110.396 386.191 110.957V113.295C386.191 113.856 385.73 114.316 385.169 114.316ZM409.232 105.475H406.891C406.329 105.475 405.869 105.015 405.869 104.454V102.111C405.869 101.55 406.329 101.09 406.891 101.09H409.232C409.799 101.09 410.254 101.55 410.254 102.111V104.449C410.255 104.584 410.229 104.717 410.178 104.841C410.127 104.966 410.052 105.079 409.957 105.175C409.862 105.27 409.749 105.346 409.625 105.397C409.5 105.449 409.367 105.475 409.232 105.475ZM401.113 105.475H398.772C398.21 105.475 397.75 105.015 397.75 104.454V102.111C397.75 101.55 398.21 101.09 398.772 101.09H401.113C401.675 101.09 402.135 101.55 402.135 102.111V104.449C402.136 104.584 402.11 104.717 402.06 104.841C402.009 104.966 401.933 105.079 401.838 105.175C401.743 105.27 401.63 105.346 401.506 105.397C401.381 105.449 401.248 105.475 401.113 105.475ZM392.994 105.475H390.653C390.087 105.475 389.627 105.015 389.627 104.454V102.111C389.627 101.55 390.087 101.09 390.653 101.09H392.994C393.556 101.09 394.016 101.55 394.016 102.111V104.449C394.016 105.015 393.556 105.475 392.994 105.475ZM401.407 123.814H399.065C398.504 123.814 398.043 123.354 398.043 122.793V120.454C398.043 119.889 398.504 119.434 399.065 119.434H401.407C401.968 119.434 402.429 119.894 402.429 120.454V122.793C402.433 123.354 401.972 123.814 401.407 123.814ZM393.288 123.814H390.946C390.385 123.814 389.924 123.354 389.924 122.793V120.454C389.924 119.889 390.385 119.434 390.946 119.434H393.288C393.854 119.434 394.314 119.894 394.314 120.454V122.793C394.311 123.064 394.202 123.322 394.01 123.513C393.818 123.704 393.559 123.812 393.288 123.814Z" fill="#E1E4E5"/>
<path d="M352.479 317.675L371.917 298.263C372.625 297.556 372.625 296.41 371.917 295.703L371.917 295.703C371.209 294.996 370.061 294.996 369.354 295.703L349.916 315.115C349.208 315.821 349.208 316.967 349.916 317.674L349.917 317.675C350.624 318.381 351.772 318.381 352.479 317.675Z" fill="#E1E4E5"/>
<path d="M354.382 303.776L359.988 298.177C360.696 297.47 360.696 296.325 359.988 295.618L359.988 295.617C359.28 294.91 358.133 294.91 357.425 295.617L351.819 301.216C351.111 301.922 351.111 303.068 351.819 303.775L351.82 303.776C352.527 304.482 353.675 304.482 354.382 303.776Z" fill="#E1E4E5"/>
<path d="M276.58 108.302L286.768 98.1275C287.139 97.7569 287.139 97.1562 286.768 96.7857C286.397 96.4151 285.795 96.4151 285.424 96.7857L275.236 106.96C274.865 107.331 274.865 107.931 275.236 108.302C275.607 108.673 276.209 108.673 276.58 108.302Z" fill="#E1E4E5"/>
<path d="M277.577 101.017L280.515 98.083C280.886 97.7125 280.886 97.1117 280.515 96.7412C280.144 96.3707 279.543 96.3707 279.172 96.7412L276.233 99.6756C275.862 100.046 275.862 100.647 276.233 101.017C276.604 101.388 277.206 101.388 277.577 101.017Z" fill="#E1E4E5"/>
<path d="M288.807 291.85C288.807 294.623 291.057 296.87 293.833 296.87C296.61 296.87 298.86 294.623 298.86 291.85C298.86 289.078 296.61 286.83 293.833 286.83C291.057 286.83 288.807 289.078 288.807 291.85Z" fill="#E1E4E5"/>
<path d="M287.131 112.803C287.131 115.576 289.382 117.823 292.158 117.823C294.934 117.823 297.184 115.576 297.184 112.803C297.184 110.031 294.934 107.783 292.158 107.783C289.382 107.783 287.131 110.031 287.131 112.803Z" fill="#E1E4E5"/>
<path d="M358.16 48.3142C361.408 47.4449 363.336 44.1106 362.465 40.8666C361.595 37.6227 358.256 35.6976 355.008 36.5668C351.759 37.436 349.832 40.7704 350.702 44.0143C351.573 47.2583 354.911 49.1834 358.16 48.3142Z" fill="#E1E4E5"/>
<path fill-rule="evenodd" clip-rule="evenodd" d="M349.127 89.0085V68.8858C349.126 68.3909 349.223 67.9007 349.412 67.4432C349.602 66.9857 349.879 66.57 350.229 66.2197C350.579 65.8693 350.995 65.5913 351.453 65.4015C351.91 65.2117 352.401 65.1137 352.897 65.1133H375.517C377.599 65.1133 379.287 66.8017 379.287 68.8858V89.0085C379.287 89.6808 379.107 90.341 378.766 90.9207C378.425 91.5004 377.935 91.9786 377.347 92.3058L366.037 98.5933C365.477 98.9053 364.847 99.069 364.206 99.069C363.565 99.069 362.934 98.9053 362.374 98.5933L351.064 92.3058C350.477 91.978 349.988 91.4996 349.647 90.92C349.306 90.3404 349.127 89.6805 349.127 89.0085Z" fill="#E1E4E5"/>
<path d="M357.938 81.7521H370.476M357.938 75.8862H370.476M357.938 87.4498H370.476" stroke="white" stroke-width="2.529" stroke-linecap="round" stroke-linejoin="round"/>
<defs>
<linearGradient id="paint0_linear_543_20562" x1="239.638" y1="400.241" x2="239.592" y2="333.271" gradientUnits="userSpaceOnUse">
<stop stop-color="white"/>
<stop offset="1" stop-color="#EEEEEE"/>
</linearGradient>
<linearGradient id="paint1_linear_543_20562" x1="289.087" y1="391.499" x2="285.592" y2="-87.1753" gradientUnits="userSpaceOnUse">
<stop stop-color="white"/>
<stop offset="1" stop-color="#EEEEEE"/>
</linearGradient>
<linearGradient id="paint2_linear_543_20562" x1="184.755" y1="260.786" x2="181.984" y2="-118.164" gradientUnits="userSpaceOnUse">
<stop stop-color="white"/>
<stop offset="1" stop-color="#EEEEEE"/>
</linearGradient>
</defs>
</svg>
