<svg width="619" height="372" viewBox="0 0 619 372" fill="none" xmlns="http://www.w3.org/2000/svg">
<path d="M220.642 49.4751C298.2 45.0847 379.515 67.9532 367.563 101.105C355.609 134.256 431.466 89.3301 461.736 101.283C483.288 109.792 474.673 135.696 485.098 146.134C509.004 170.066 533.454 139.929 563.879 158.012C594.304 176.094 532.012 344.86 500.228 345.803L137.698 343.653L111.682 341.372C111.682 341.372 39.7172 302.983 91.1963 267.569C126.005 243.623 100.96 226.235 97.1735 215.272C92.827 202.686 82.6856 180.703 126.875 164.572C171.065 148.44 159.655 113.338 158.568 106.071C157.482 98.8005 143.087 53.8655 220.642 49.4751Z" fill="url(#paint0_linear_543_20564)"/>
<path d="M336.16 358.68C487.089 358.68 609.44 354.31 609.44 348.92C609.44 343.53 487.089 339.16 336.16 339.16C185.231 339.16 62.88 343.53 62.88 348.92C62.88 354.31 185.231 358.68 336.16 358.68Z" fill="url(#paint1_linear_543_20564)"/>
<path d="M91.5142 283.787C91.5142 283.787 106.615 255.872 146.156 228.64C174.071 209.411 187.623 159.789 187.623 159.789C187.623 159.789 131.956 166.205 110.09 201.925C88.2242 237.645 91.5142 283.787 91.5142 283.787Z" fill="#3366FE"/>
<path d="M91.3768 284.515C91.7542 284.488 92.0722 284.212 92.1308 283.849C97.89 253.646 113.53 230.924 125.651 217.168C138.79 202.284 150.681 194.452 150.802 194.381C151.184 194.121 151.296 193.607 151.036 193.225C150.976 193.133 150.898 193.054 150.807 192.993C150.716 192.932 150.614 192.889 150.507 192.867C150.399 192.845 150.289 192.845 150.181 192.866C150.073 192.887 149.971 192.93 149.88 192.991C149.759 193.062 137.666 201.014 124.392 216.076C112.131 229.969 96.2999 252.957 90.483 283.523C90.461 283.63 90.4608 283.741 90.4823 283.847C90.5037 283.954 90.5465 284.056 90.6081 284.146C90.6696 284.236 90.7487 284.313 90.8405 284.372C90.9323 284.431 91.035 284.471 91.1426 284.489C91.2491 284.503 91.3134 284.519 91.3768 284.515Z" fill="#263972"/>
<path d="M98.7976 282.656C98.7976 282.656 102.954 272.59 124.981 273.467C147.007 274.324 160.008 285.613 197.308 260.989C197.308 260.989 166.438 238.778 135.232 245.898C104.005 252.998 102.435 265.305 98.7976 282.656Z" fill="#3366FE"/>
<path d="M98.7513 283.482C99.0238 283.463 99.2865 283.297 99.4361 283.033C99.5305 282.878 108.197 266.816 123.717 262.839C150.84 255.884 170.151 263.326 170.347 263.418C170.554 263.496 170.784 263.49 170.986 263.4C171.189 263.311 171.349 263.146 171.431 262.94C171.508 262.735 171.504 262.508 171.419 262.306C171.334 262.104 171.174 261.942 170.974 261.854C170.778 261.783 150.968 254.124 123.307 261.223C107.06 265.378 98.3406 281.57 97.9672 282.251C97.7436 282.668 97.9054 283.163 98.3219 283.386C98.4333 283.463 98.6041 283.493 98.7513 283.482Z" fill="#263972"/>
<path d="M89.0782 280.986C89.0782 280.986 90.2266 270.164 70.457 260.413C50.6873 250.66 33.8822 254.37 12.8616 214.934C12.8616 214.934 50.5848 210.156 74.6277 231.314C98.6682 252.43 94.1542 263.998 89.0782 280.986Z" fill="#3366FE"/>
<path d="M89.2458 281.86C89.6655 281.83 90.0201 281.467 90.0112 281.046C90.0185 280.265 90.0583 261.884 77.7876 250.479C56.8637 231.04 35.8017 228.322 35.6097 228.293C35.3928 228.269 35.1749 228.331 35.003 228.465C34.8311 228.6 34.7189 228.797 34.6907 229.013C34.6662 229.23 34.728 229.448 34.8626 229.62C34.9972 229.792 35.194 229.904 35.4105 229.932C35.6236 229.959 56.1537 232.631 76.6717 251.698C88.4219 262.613 88.3715 280.847 88.3641 281.037C88.3617 281.147 88.381 281.256 88.421 281.358C88.461 281.461 88.5209 281.554 88.5972 281.633C88.6736 281.712 88.7648 281.775 88.8657 281.819C88.9665 281.862 89.075 281.885 89.1848 281.886C89.1832 281.865 89.2043 281.864 89.2458 281.86Z" fill="#263972"/>
<path d="M98.5008 355.459C127.208 355.459 145.477 350.892 142.548 330.666C140.688 317.825 130.679 305.262 123.613 297.78C122.704 296.82 121.779 295.876 120.837 294.948C118.213 292.365 116.45 290.866 116.45 290.866L116.366 290.395L115.867 287.563L115.284 284.3L113.966 276.832L113.507 274.222L98.5008 273.569L82.8417 274.222L82.4814 276.832L81.9259 280.941L81.0092 287.577L80.6213 290.409L80.5652 290.88C80.5652 290.88 78.8027 292.365 76.1789 294.962C75.2402 295.893 74.3146 296.837 73.4021 297.794C66.3367 305.262 56.3278 317.839 54.4677 330.68C51.5243 350.892 69.7934 355.459 98.5008 355.459Z" fill="#263972"/>
<path d="M77.0068 278.957H120.414C122.738 278.957 124.641 277.054 124.641 274.729V272.085C124.641 269.761 122.738 267.857 120.414 267.857H77.0068C74.6823 267.857 72.7791 269.761 72.7791 272.085V274.729C72.7791 277.054 74.6823 278.957 77.0068 278.957Z" fill="#263972"/>
<path d="M70.2 175.002C70.2 179.497 66.3749 183.136 61.6502 183.136C56.9256 183.136 53.12 179.479 53.12 175.002C53.12 170.507 56.9451 166.869 61.6697 166.869C66.3944 166.869 70.2 170.507 70.2 175.002Z" stroke="#E1E4E5" stroke-width="5.225" stroke-miterlimit="10"/>
<path d="M122.518 125.354C110.179 136.137 88.9521 132.047 88.9521 132.047C88.9521 132.047 87.746 110.477 100.096 99.7019C112.436 88.9195 133.652 93.0008 133.652 93.0008C133.652 93.0008 134.858 114.571 122.518 125.354Z" fill="url(#paint2_linear_543_20564)"/>
<path d="M169.571 60.4042C168.937 62.7702 170.341 65.2021 172.707 65.8361C175.073 66.4701 177.505 65.066 178.139 62.7C178.773 60.334 177.369 57.9021 175.003 57.2681C172.637 56.6342 170.205 58.0382 169.571 60.4042Z" fill="#E1E4E5"/>
<path d="M185.68 116.541C185.046 118.907 186.45 121.339 188.816 121.973C191.182 122.607 193.614 121.203 194.248 118.837C194.882 116.471 193.478 114.039 191.112 113.405C188.746 112.771 186.314 114.175 185.68 116.541Z" fill="#E1E4E5"/>
<path d="M273.846 75.0009C273.212 77.3669 274.617 79.7988 276.982 80.4328C279.348 81.0667 281.78 79.6627 282.414 77.2967C283.048 74.9307 281.644 72.4988 279.278 71.8648C276.912 71.2308 274.48 72.6349 273.846 75.0009Z" fill="#E1E4E5"/>
<path d="M433.678 172.719C433.261 174.273 434.184 175.871 435.739 176.288C437.293 176.704 438.891 175.782 439.308 174.227C439.724 172.672 438.802 171.074 437.247 170.658C435.693 170.241 434.095 171.164 433.678 172.719Z" fill="#E1E4E5"/>
<path d="M434.908 243.404C434.274 245.77 435.678 248.202 438.044 248.836C440.41 249.47 442.842 248.066 443.476 245.7C444.11 243.334 442.706 240.902 440.34 240.268C437.974 239.634 435.542 241.038 434.908 243.404Z" fill="#E1E4E5"/>
<path d="M469.882 217.378C469.248 219.744 470.652 222.176 473.018 222.81C475.384 223.444 477.816 222.04 478.45 219.674C479.083 217.308 477.679 214.876 475.313 214.242C472.947 213.608 470.516 215.012 469.882 217.378Z" fill="#E1E4E5"/>
<path d="M367.272 47.8196V63.63L353 80.6401H412.952C431.073 80.6401 445.772 65.9415 445.772 47.8196C445.772 29.6986 431.073 15 412.952 15H400.093C381.96 15 367.272 29.6986 367.272 47.8196Z" fill="#E1E4E5"/>
<path d="M392.564 47.7644C392.563 49.3117 391.948 50.7954 390.854 51.8895C389.76 52.9836 388.276 53.5986 386.729 53.5992C385.182 53.5984 383.698 52.9833 382.604 51.8893C381.51 50.7952 380.895 49.3116 380.894 47.7644C380.895 46.2171 381.51 44.7335 382.604 43.6395C383.698 42.5454 385.182 41.9304 386.729 41.9295C388.276 41.9302 389.76 42.5451 390.854 43.6392C391.948 44.7333 392.563 46.2171 392.564 47.7644ZM412.39 47.7636C412.39 49.3108 411.775 50.7945 410.681 51.8887C409.587 52.9828 408.104 53.5978 406.556 53.5984C405.009 53.5978 403.525 52.9828 402.431 51.8887C401.337 50.7946 400.722 49.3109 400.721 47.7636C400.722 46.2163 401.337 44.7325 402.431 43.6384C403.525 42.5443 405.009 41.9294 406.556 41.9287C408.103 41.9296 409.587 42.5446 410.681 43.6387C411.775 44.7328 412.39 46.2164 412.39 47.7636ZM432.218 47.7636C432.217 49.3109 431.602 50.7946 430.508 51.8887C429.414 52.9828 427.93 53.5978 426.383 53.5984C424.836 53.5978 423.352 52.9828 422.258 51.8887C421.164 50.7946 420.549 49.3109 420.548 47.7636C420.549 46.2163 421.164 44.7327 422.258 43.6386C423.352 42.5446 424.836 41.9296 426.383 41.9287C427.93 41.9294 429.414 42.5443 430.508 43.6384C431.602 44.7325 432.217 46.2163 432.218 47.7636Z" fill="white"/>
<path d="M457.07 297.572L445.626 302.046L446.351 289.78L457.792 285.31L457.07 297.572Z" stroke="#E1E4E5" stroke-width="4.267" stroke-linecap="round" stroke-linejoin="round"/>
<path fill-rule="evenodd" clip-rule="evenodd" d="M205.213 74.401V43.2528C205.213 40.0263 207.822 37.4131 211.041 37.4131H246.009C249.229 37.4131 251.837 40.0263 251.837 43.2528V74.401C251.837 75.4419 251.56 76.464 251.032 77.3615C250.505 78.2589 249.748 78.9992 248.838 79.5055L231.355 89.2379C230.489 89.7203 229.515 89.9735 228.524 89.9735C227.533 89.9735 226.559 89.7203 225.693 89.2379L208.209 79.5055C207.301 78.9981 206.544 78.2575 206.018 77.3602C205.491 76.4629 205.213 75.4414 205.213 74.401Z" fill="#E1E4E5"/>
<path d="M218.834 63.1697H238.217M218.834 54.0889H238.217M218.834 71.9879H238.217" stroke="white" stroke-width="3.682" stroke-linecap="round" stroke-linejoin="round"/>
<path d="M484.39 166.642L469.581 181.451C469.041 181.991 469.041 182.865 469.581 183.404C470.12 183.944 470.994 183.944 471.534 183.404L486.343 168.595C486.882 168.056 486.882 167.181 486.343 166.642C485.803 166.103 484.929 166.103 484.39 166.642Z" fill="#E1E4E5"/>
<path d="M482.94 177.244L478.669 181.515C478.13 182.054 478.13 182.928 478.669 183.468C479.209 184.007 480.083 184.007 480.622 183.468L484.893 179.197C485.433 178.658 485.433 177.783 484.893 177.244C484.354 176.705 483.48 176.705 482.94 177.244Z" fill="#E1E4E5"/>
<path d="M554.826 122.062C554.826 122.062 542.334 118.709 538.027 147.349C533.72 175.987 533.689 191.674 533.689 191.674C533.689 191.674 532.108 197.901 527.464 195.721C522.82 193.54 514.827 185.645 509.406 189.352C503.786 193.199 504.057 200.81 508.637 210.604C513.217 220.398 522.46 242.205 523.289 244.187C524.108 246.122 523.938 249.443 520.537 248.461C517.136 247.48 495.317 235.07 490.052 245.77C484.776 256.474 502.021 281.654 503.851 284.439C505.681 287.225 505.525 288.736 504.326 289.979C503.128 291.221 496.183 286.357 489.837 283.076C483.49 279.795 475.55 277.116 473.026 283.546C470.502 289.976 476.119 311.31 507.303 338.596L522.58 350.293L540.548 343.175C578.068 325.6 589.38 306.653 588.733 299.778C588.087 292.903 579.718 293.277 572.707 294.669C565.696 296.063 557.677 298.809 556.869 297.282C556.061 295.755 556.322 294.265 558.853 292.093C561.384 289.92 584.926 270.511 582.824 258.758C580.724 247.017 556.32 252.896 552.781 252.885C549.244 252.887 550.011 249.655 551.328 248.019C552.674 246.351 567.608 227.953 574.716 219.809C581.827 211.678 584.194 204.431 579.86 199.178C575.687 194.107 565.81 199.493 560.747 200.302C555.683 201.111 555.89 194.68 555.89 194.68C555.89 194.68 560.217 179.597 564.006 150.886C567.795 122.174 554.547 122 554.547 122" fill="#E1E4E5"/>
<path d="M522.261 346.269C525.119 325.193 529.319 296.109 534.078 263.999C538.828 231.904 543.096 202.84 546.082 181.778C547.562 171.269 548.756 162.755 549.587 156.842C549.999 153.917 550.322 151.639 550.547 150.059C550.656 149.307 550.749 148.722 550.808 148.295C550.878 147.903 550.921 147.692 550.921 147.692C550.921 147.692 550.913 147.893 550.873 148.302C550.825 148.727 550.759 149.317 550.675 150.075C550.477 151.659 550.192 153.94 549.832 156.876C549.097 162.776 547.972 171.309 546.535 181.844C543.677 202.921 539.475 231.993 534.727 264.099C529.98 296.206 525.702 325.273 522.726 346.332" fill="white"/>
<path d="M520.147 200.857C520.19 200.833 520.491 201.213 521.035 201.939C521.576 202.653 522.32 203.712 523.22 205.027C525.024 207.67 527.423 211.373 529.994 215.528C532.496 219.615 534.77 223.315 536.52 226.172C537.305 227.431 537.965 228.498 538.514 229.385C538.991 230.141 539.231 230.576 539.188 230.599C539.144 230.624 538.832 230.246 538.292 229.532C537.763 228.814 537.019 227.756 536.127 226.426C534.343 223.766 531.995 220.024 529.44 215.876L522.842 205.29C522.056 204.032 521.385 202.966 520.836 202.08C520.356 201.311 520.116 200.878 520.147 200.857ZM540.966 230.359C540.865 230.212 548.29 224.922 557.557 218.566C566.823 212.198 574.427 207.159 574.528 207.306C574.63 207.453 567.202 212.731 557.937 219.1C548.66 225.47 541.068 230.507 540.966 230.359ZM531.45 279.336C531.437 279.29 531.913 279.112 532.766 278.809C533.761 278.48 534.986 278.077 536.425 277.592C539.512 276.566 543.783 275.122 548.431 273.366C553.082 271.621 557.24 269.897 560.25 268.63C561.65 268.044 562.835 267.539 563.808 267.129C564.649 266.779 565.127 266.614 565.148 266.645C565.173 266.689 564.727 266.933 563.92 267.36C562.772 267.949 561.611 268.513 560.438 269.053C556.578 270.841 552.652 272.483 548.669 273.975C544.685 275.471 540.648 276.823 536.566 278.027C534.996 278.485 533.718 278.828 532.843 279.05C531.957 279.275 531.462 279.382 531.45 279.336ZM506.753 256.787C506.781 256.754 507.154 257.029 507.819 257.56C508.473 258.095 509.405 258.878 510.551 259.854C513.529 262.41 516.484 264.993 519.415 267.604C522.351 270.21 525.265 272.841 528.155 275.499C529.034 276.304 529.901 277.122 530.756 277.952C531.361 278.537 531.679 278.888 531.65 278.92C531.621 278.953 531.249 278.679 530.583 278.148C529.929 277.613 528.997 276.829 527.852 275.853C524.874 273.297 521.919 270.714 518.988 268.104C515.555 265.051 512.465 262.255 510.259 260.206C509.381 259.4 508.514 258.582 507.659 257.752C507.042 257.17 506.713 256.823 506.753 256.787ZM492.858 298.953C492.887 298.921 493.368 299.278 494.211 299.961C495.141 300.733 496.324 301.711 497.724 302.893C500.672 305.39 504.717 308.865 509.156 312.744C513.595 316.623 517.593 320.16 520.465 322.74C521.815 323.972 522.953 325.012 523.846 325.832C524.628 326.569 525.056 327.001 525.027 327.035C524.999 327.067 524.517 326.71 523.674 326.027C522.744 325.255 521.561 324.277 520.161 323.096C516.326 319.84 512.516 316.556 508.729 313.245C504.938 309.937 501.168 306.605 497.42 303.248C496.069 302.016 494.932 300.976 494.039 300.156C493.245 299.423 492.829 298.987 492.858 298.953ZM524.441 326.145C524.429 326.098 525.022 325.852 526.095 325.44C527.296 324.994 528.835 324.42 530.682 323.738C534.554 322.29 539.906 320.282 545.743 317.897C550.731 315.862 555.686 313.746 560.605 311.549C562.098 310.892 563.59 310.231 565.079 309.565C566.14 309.106 566.733 308.86 566.758 308.904C566.781 308.947 566.218 309.26 565.191 309.796C564.164 310.333 562.659 311.085 560.793 311.972C555.924 314.293 550.988 316.471 545.992 318.503C540.996 320.539 535.941 322.429 530.835 324.17C529.289 324.698 527.734 325.202 526.172 325.681C525.078 326.012 524.462 326.177 524.441 326.145Z" fill="white"/>
<path d="M516.665 147.213H516.772C517.401 155.767 524.04 155.898 524.04 155.898C524.04 155.898 516.72 156.036 516.72 165.92C516.72 156.036 509.4 155.898 509.4 155.898C509.4 155.898 516.035 155.767 516.665 147.213Z" fill="#E1E4E5"/>
<path d="M309.075 146.796L296.772 191.772L301.161 186.72C299.538 187.585 297.656 188.247 295.571 188.718C293.488 189.188 291.221 189.457 288.849 189.582C286.477 189.707 284.008 189.688 281.473 189.582C278.947 189.476 276.364 189.284 273.742 189.063H273.732C271.874 188.906 270.03 189.492 268.604 190.693C267.177 191.894 266.286 193.612 266.125 195.469C265.809 199.157 268.43 202.423 272.023 203.009C274.731 203.44 277.478 203.844 280.301 204.171C283.125 204.497 286.016 204.737 289.012 204.804C292.009 204.872 295.111 204.756 298.319 204.295C301.517 203.834 304.839 202.999 308.086 201.597C309.073 201.171 309.96 200.543 310.688 199.752C311.416 198.961 311.969 198.025 312.311 197.006L312.465 196.535L327.226 152.299C328.888 147.325 326.199 141.956 321.224 140.294C316.25 138.632 310.881 141.322 309.219 146.296C309.171 146.46 309.113 146.642 309.075 146.796Z" fill="#F8AE9D"/>
<path d="M372.86 201.553C372.86 201.553 373.335 208.214 368.565 209.974L318.934 211.885C318.934 211.885 315.6 208.649 316.256 200.891C316.256 200.872 337.347 179.354 372.86 201.553Z" fill="#3366FE"/>
<path d="M336.418 208.579C336.581 209.846 337.138 210.817 337.666 210.739C338.185 210.673 338.483 209.587 338.319 208.329C338.156 207.061 337.599 206.091 337.071 206.168C336.542 206.235 336.254 207.321 336.418 208.579Z" fill="#B55E63"/>
<path d="M315.317 192.777V192.845C315.337 193.03 315.347 193.226 315.357 193.431C315.405 194.211 315.444 195.148 315.474 196.212C315.503 197.071 315.513 198.008 315.522 199.013C315.522 199.765 315.532 200.546 315.532 201.356C329.645 195.256 358.505 199.589 370.122 201.707C370.006 201.121 369.899 200.546 369.791 199.979C369.713 199.56 369.645 199.15 369.567 198.74C368.797 194.28 368.387 190.269 368.252 186.687L368.222 185.731C368.105 180.411 368.68 172.848 369.85 165.06C369.928 164.523 370.016 163.986 370.093 163.459L370.269 162.405C370.694 159.819 371.191 157.244 371.76 154.686C371.955 153.827 372.121 152.958 372.257 152.099C372.413 151.143 372.53 150.186 372.618 149.24C372.832 146.839 372.813 144.496 372.501 142.32C371.945 138.445 370.435 135.108 367.638 132.961C366.058 131.751 364.061 130.911 361.585 130.579C360.775 130.472 359.977 130.365 359.207 130.277C356.78 129.984 354.548 129.779 352.735 129.633C352.14 129.584 351.585 129.545 351.088 129.506C349.821 129.418 348.885 129.359 348.427 129.34C348.316 129.335 348.206 129.329 348.096 129.32L326.428 135.323L324.363 135.889C323.485 136.162 322.657 136.426 321.887 136.679C319.976 137.314 318.349 137.919 316.945 138.513C315.21 139.255 313.827 139.977 312.735 140.739C307.959 144.047 308.641 147.864 308.66 155.379V155.896C308.66 156.462 308.651 157.027 308.632 157.593C308.612 158.306 308.573 159.009 308.515 159.711C308.417 161.127 309.257 162.508 309.082 163.893C311.353 173.647 311.922 176.9 312.735 183C313.439 188.287 313.3 191.294 314.781 192.387C315.113 192.641 315.317 192.777 315.317 192.777Z" fill="#3366FE"/>
<path d="M347.626 130.383C347.626 130.383 345.714 137.615 338.493 139.622C329.311 142.167 327.927 139.084 327.927 139.084C328.156 137.775 328.239 136.445 328.177 135.118C328.154 134.588 328.113 134.06 328.053 133.533C327.889 132.054 327.582 130.441 327.15 128.596C327.054 128.165 326.938 127.713 326.824 127.252L326.814 127.194C333.095 124.832 338.022 121.288 341.038 116.044L341.931 115.343L342.536 114.863L342.708 115.228L342.737 116.448C342.862 122.181 343.832 125.572 347.626 130.383Z" fill="#F8AE9D"/>
<path d="M304.34 309.863C304.523 309.863 304.705 309.834 304.887 309.767L369.331 286.535C369.725 286.379 370.044 286.076 370.218 285.69C370.393 285.304 370.41 284.865 370.267 284.466C370.123 284.068 369.829 283.741 369.449 283.555C369.068 283.369 368.629 283.339 368.226 283.471L303.783 306.703C303.422 306.833 303.119 307.086 302.927 307.418C302.735 307.75 302.666 308.139 302.732 308.517C302.799 308.895 302.997 309.237 303.291 309.483C303.585 309.729 303.956 309.864 304.34 309.863Z" fill="#3366FE"/>
<path d="M371.453 309.863C371.836 309.862 372.206 309.726 372.498 309.48C372.791 309.233 372.987 308.891 373.052 308.514C373.118 308.136 373.048 307.748 372.856 307.417C372.664 307.086 372.361 306.834 372.001 306.704L306.79 283.087C306.387 282.953 305.948 282.982 305.566 283.167C305.183 283.352 304.889 283.678 304.743 284.077C304.598 284.476 304.615 284.916 304.789 285.303C304.963 285.69 305.281 285.994 305.675 286.151L370.887 309.767C371.089 309.834 371.271 309.863 371.453 309.863Z" fill="#3366FE"/>
<path d="M298.607 351.381C299.28 351.379 299.929 351.134 300.436 350.691C300.942 350.248 301.272 349.637 301.363 348.97L313.003 262.064H361.705L373.163 348.97C373.21 349.332 373.328 349.682 373.51 349.998C373.693 350.315 373.936 350.592 374.226 350.815C374.516 351.037 374.848 351.2 375.201 351.294C375.554 351.388 375.922 351.411 376.284 351.362C376.646 351.315 376.996 351.196 377.312 351.014C377.629 350.831 377.906 350.588 378.128 350.298C378.35 350.008 378.513 349.677 378.607 349.324C378.701 348.971 378.724 348.603 378.675 348.24L366.901 258.914C366.813 258.245 366.485 257.63 365.978 257.185C365.471 256.74 364.819 256.494 364.144 256.493H310.564C309.89 256.492 309.239 256.736 308.732 257.18C308.225 257.623 307.896 258.236 307.807 258.904L295.841 348.231C295.744 348.963 295.941 349.704 296.389 350.291C296.837 350.878 297.5 351.263 298.232 351.362C298.357 351.381 298.482 351.381 298.607 351.381Z" fill="#3366FE"/>
<path d="M326.083 259.279H360.879C371.904 259.279 383.708 253.248 385.398 242.347C387.532 228.582 388.265 214.636 387.588 200.723C386.877 186.077 379.886 172.459 368.37 163.383C368.37 163.383 361.417 193.674 370.156 235.49C366.834 251.385 326.083 259.279 326.083 259.279Z" fill="#3366FE"/>
<path d="M245.573 314.145H261.112C261.112 314.145 264.714 296.897 265.915 287.216C267.124 277.545 267.749 254.61 267.749 254.61C267.749 254.61 280.138 258.635 306.069 257.117C363.521 253.765 341.739 211.556 341.739 211.556C339.798 214.235 327.909 212.381 319.784 213.659C294.842 216.05 273.204 225.847 260.229 231.446C257.098 232.79 254.322 234.221 251.893 235.719C248.762 237.65 246.802 243.499 245.621 251.201C242.068 274.337 245.573 314.145 245.573 314.145Z" fill="#263972"/>
<path d="M246.005 334.056H256.973L259.086 321.187L260.239 314.146H246.611L246.399 321.187L246.005 334.056Z" fill="#F8AE9D"/>
<path d="M246.005 334.056H256.973L258.549 324.472L259.086 321.187H246.399L246.293 324.596L246.005 334.056Z" fill="url(#paint3_linear_543_20564)"/>
<path d="M218.932 351.382H260.431C260.738 350.825 260.911 350.028 260.978 349.077C261.237 345.562 260.123 339.963 259.566 336.428C259.499 336.015 259.442 335.631 259.394 335.286C259.316 334.69 259.268 334.201 259.268 333.845C259.268 330.964 256.714 331.453 256.714 331.453C252.517 335.574 247.763 329.398 244.988 331.425C244.988 331.425 244.872 331.511 244.623 331.703C244.392 331.886 244.036 332.174 243.547 332.587C242.836 333.182 241.847 334.037 240.502 335.247C237.208 338.214 231.609 340.165 226.836 342.162C226.231 342.412 225.664 342.671 225.136 342.92C224.742 343.113 224.367 343.305 224.012 343.497C220.113 345.6 218.874 347.617 218.595 349.077C218.317 350.488 218.932 351.382 218.932 351.382Z" fill="#263972"/>
<path d="M218.932 351.382H260.431C260.738 350.825 260.911 350.028 260.978 349.077H218.595C218.317 350.489 218.932 351.382 218.932 351.382Z" fill="#263972"/>
<path d="M350.186 141.824L336.391 192.69L341.309 186.977C339.49 187.956 337.38 188.7 335.047 189.236C332.713 189.763 330.165 190.073 327.514 190.205C324.855 190.347 322.082 190.318 319.245 190.205C316.407 190.083 313.514 189.876 310.573 189.622H310.556C306.215 189.245 302.398 192.492 302.024 196.868C301.669 201.037 304.609 204.735 308.642 205.394C311.675 205.884 314.765 206.345 317.928 206.712C321.093 207.079 324.341 207.361 327.701 207.436C331.061 207.512 334.542 207.38 338.136 206.853C341.73 206.326 345.454 205.385 349.094 203.804C351.427 202.787 353.08 200.858 353.835 198.618L354.013 198.091L370.552 148.054C372.409 142.426 369.404 136.356 363.822 134.474C358.25 132.601 352.221 135.631 350.354 141.259C350.298 141.438 350.232 141.654 350.186 141.824Z" fill="#F8AE9D"/>
<path d="M272.637 314.195H288.176C288.176 314.195 291.778 296.946 292.978 287.265C294.189 277.593 294.813 254.659 294.813 254.659C294.813 254.659 307.202 258.683 333.133 257.166C390.584 253.814 368.802 211.604 368.802 211.604C366.862 214.284 352.303 217.982 344.178 219.259C319.236 221.65 300.268 225.886 287.293 231.495C284.162 232.839 281.387 234.27 278.957 235.768C275.826 237.699 273.867 243.547 272.685 251.25C269.123 274.386 272.637 314.195 272.637 314.195Z" fill="#263972"/>
<path d="M273.06 334.113H284.038L286.151 321.244L287.303 314.194H273.675L273.454 321.244L273.06 334.113Z" fill="#F8AE9D"/>
<path d="M273.06 334.114H284.038L285.602 324.528L286.151 321.244H273.454L273.348 324.654L273.06 334.114Z" fill="url(#paint4_linear_543_20564)"/>
<path d="M245.987 351.438H287.485C287.793 350.881 287.965 350.084 288.033 349.133C288.292 345.619 287.178 340.019 286.621 336.485C286.554 336.072 286.496 335.688 286.448 335.342C286.371 334.747 286.323 334.257 286.323 333.901C286.323 331.02 283.768 331.51 283.768 331.51C279.572 335.63 274.818 329.455 272.042 331.481C272.042 331.481 271.927 331.568 271.677 331.76C271.446 331.943 271.091 332.231 270.601 332.644C269.891 333.239 268.902 334.094 267.557 335.303C264.263 338.271 258.663 340.221 253.891 342.218C253.286 342.468 252.719 342.727 252.191 342.977C251.797 343.169 251.422 343.362 251.067 343.554C247.168 345.657 245.929 347.673 245.65 349.133C245.382 350.535 245.987 351.438 245.987 351.438Z" fill="#263972"/>
<path d="M245.986 351.438H287.485C287.793 350.881 287.965 350.084 288.033 349.133H245.65C245.381 350.535 245.986 351.438 245.986 351.438Z" fill="#263972"/>
<path d="M187.704 211.06V215.37C187.704 217.854 189.229 219.859 191.124 219.859H428.813C430.699 219.859 432.234 217.854 432.234 215.37V211.06C432.234 208.586 430.709 206.569 428.813 206.569H191.124C189.239 206.582 187.704 208.586 187.704 211.06Z" fill="#E1E4E5"/>
<path d="M199.857 225.988H413.807C414.767 225.988 415.545 225.354 415.545 224.567V217.085H198.129V224.567C198.129 225.354 198.907 225.988 199.857 225.988ZM425.37 352.524L395.06 226.874H405.711L436.011 352.524H425.37ZM217.75 352.524L248.06 226.874H237.419L207.109 352.524H217.75Z" fill="#E1E4E5"/>
<path d="M216.463 140.755L227.604 187.872L227.902 189.111L228.651 192.281C228.808 192.947 229.185 193.542 229.722 193.967C230.259 194.392 230.924 194.624 231.609 194.624H306.664C308.624 194.624 310.084 192.79 309.632 190.878L297.444 139.353C297.287 138.686 296.91 138.092 296.373 137.667C295.836 137.241 295.171 137.01 294.486 137.01H219.431C217.462 137.019 216.012 138.854 216.463 140.755Z" fill="#3366FE"/>
<path d="M252.93 167.839C253.285 171.086 256.205 173.707 259.451 173.707C262.697 173.707 265.031 171.076 264.675 167.839C264.32 164.593 261.401 161.972 258.155 161.972C254.908 161.972 252.575 164.593 252.93 167.839Z" fill="white"/>
<path d="M291.501 137.019L304.476 194.633H306.665C308.625 194.633 310.075 192.799 309.623 190.887L297.435 139.362C297.279 138.695 296.901 138.101 296.364 137.675C295.827 137.25 295.162 137.019 294.477 137.019H291.501ZM269.813 194.166L271.872 205.683H265.071L263.012 194.166H269.813Z" fill="#263972"/>
<path d="M281.327 204.645L279.79 202.484C279.517 202.104 279.158 201.794 278.743 201.58C278.327 201.366 277.866 201.255 277.398 201.255H256.779C256.244 201.253 255.718 201.4 255.261 201.677C254.803 201.955 254.431 202.354 254.186 202.83L253.148 204.818C252.658 205.749 253.341 206.854 254.388 206.854H280.184C281.317 206.854 281.98 205.567 281.327 204.645Z" fill="#263972"/>
<path d="M323.557 128.919C323.557 128.919 344.341 126.895 342.881 113.97C341.421 101.045 343.117 92.0792 329.787 92.8267C316.456 93.5733 314.435 98.7949 313.875 103.227C313.315 107.659 318.115 129.112 323.557 128.919Z" fill="#F8AE9D"/>
<path d="M306.067 91.8623C306.067 91.8623 308.21 103.857 312.294 104.295C316.376 104.732 314.913 99.6882 314.913 99.6882L313.812 93.9989L306.067 91.8623Z" fill="#002C54"/>
<path d="M341.39 88.0132C340.844 83.4699 336.07 82.193 336.07 82.193C331.279 80.4834 321.827 82.3158 312.193 85.4342C309.923 86.1653 306.902 85.0291 305.4 86.2987C303.583 87.8335 306.098 93.8237 306.098 93.8237C310.981 104.961 324.593 99.9042 328.663 98.0864C329.944 100.95 330.204 105.074 332.886 106.971C334.422 108.048 336.882 107.851 339.359 107.194C339.717 107.748 340.93 108.162 341.239 108.944C342.285 111.559 342.566 115.775 342.848 119.015L343.981 118.32C344.049 117.421 353.563 87.2519 341.39 88.0132Z" fill="#002C54"/>
<path d="M152.374 90.2803H127.133C118.15 90.2803 110.867 97.5631 110.867 106.547V117.696C110.867 126.68 118.15 133.963 127.133 133.963H152.374C161.357 133.963 168.64 126.68 168.64 117.696V106.547C168.64 97.5631 161.357 90.2803 152.374 90.2803Z" fill="#3366FE"/>
<path d="M144.128 127.769L143.545 127.185C141.321 124.962 137.716 124.962 135.493 127.185L134.909 127.769C132.686 129.992 132.686 133.597 134.909 135.82L135.493 136.404C137.716 138.627 141.321 138.627 143.545 136.404L144.128 135.82C146.352 133.597 146.352 129.992 144.128 127.769Z" fill="#3366FE"/>
<path fill-rule="evenodd" clip-rule="evenodd" d="M145.637 99.6738C150.691 99.6738 154.079 104.398 154.079 108.797C154.079 117.727 140.01 125.038 139.753 125.038C139.497 125.038 125.428 117.727 125.428 108.797C125.428 104.398 128.816 99.6738 133.87 99.6738C136.759 99.6738 138.657 101.109 139.753 102.386C140.85 101.109 142.748 99.6738 145.637 99.6738Z" fill="white"/>
<g clip-path="url(#clip0_543_20564)">
<path d="M500.442 110.178C497.217 99.5507 469.338 85.8349 447.313 102.886C437.07 110.816 440.249 116.507 434.351 127.743C430.836 134.44 424.608 140.825 425.024 148.513C425.382 155.15 428.822 161.152 433.476 164.161C443.942 170.929 460.524 172.078 469.193 152.1C477.862 132.122 508.758 137.587 500.442 110.178Z" fill="url(#paint5_linear_543_20564)"/>
<path d="M509.932 143.543C507.73 140.686 503.87 140.837 497.879 142.361C493.373 143.507 489.255 144.491 485.06 147.707C482.123 149.957 479.946 152.727 478.444 155.323C476.816 158.135 474.449 161.423 476.246 164.055C478.717 167.67 490.108 169.291 499.883 162.296C510.62 154.611 512.085 146.335 509.932 143.543Z" fill="url(#paint6_linear_543_20564)"/>
<path d="M432.904 118.196C429.811 126.522 426.715 135.32 421.051 140.773C415.209 146.399 413.33 144.413 411.874 140.843C410.418 137.272 410.204 127.936 418.219 120.424C426.237 112.909 435.798 110.403 432.904 118.196Z" fill="url(#paint7_linear_543_20564)"/>
<path fill-rule="evenodd" clip-rule="evenodd" d="M439.529 108.358H487.698C491.5 108.358 494.579 111.467 494.579 115.304V116.642H432.648V115.304C432.648 111.467 435.727 108.358 439.529 108.358ZM432.648 125.608V160.455C432.648 164.292 435.727 167.401 439.529 167.401H487.698C491.5 167.401 494.579 164.292 494.579 160.455V125.608H432.648Z" fill="#3366FE"/>
<path d="M494.579 116.641V118.885C495.807 118.885 496.802 117.881 496.802 116.641H494.579ZM432.648 116.641H430.425C430.425 117.881 431.42 118.885 432.648 118.885V116.641ZM432.648 125.608V123.364C431.42 123.364 430.425 124.369 430.425 125.608H432.648ZM494.579 125.608H496.802C496.802 124.369 495.807 123.364 494.579 123.364V125.608ZM487.698 106.114H439.529V110.602H487.698V106.114ZM496.802 115.304C496.802 110.227 492.728 106.114 487.698 106.114V110.602C490.272 110.602 492.356 112.706 492.356 115.304H496.802ZM496.802 116.641V115.304H492.356V116.641H496.802ZM432.648 118.885H494.579V114.397H432.648V118.885ZM430.425 115.304V116.641H434.871V115.304H430.425ZM439.529 106.114C434.5 106.114 430.425 110.227 430.425 115.304H434.871C434.871 112.706 436.955 110.602 439.529 110.602V106.114ZM430.425 125.608V160.454H434.871V125.608H430.425ZM430.425 160.454C430.425 165.531 434.5 169.644 439.529 169.644V165.157C436.955 165.157 434.871 163.053 434.871 160.454H430.425ZM439.529 169.644H487.698V165.157H439.529V169.644ZM487.698 169.644C492.728 169.644 496.802 165.531 496.802 160.454H492.356C492.356 163.053 490.272 165.157 487.698 165.157V169.644ZM496.802 160.454V125.608H492.356V160.454H496.802ZM494.579 123.364H432.648V127.852H494.579V123.364Z" fill="#3366FE"/>
<path d="M443.804 132.08H440.041C438.392 132.08 437.056 133.429 437.056 135.093V138.892C437.056 140.556 438.392 141.905 440.041 141.905H443.804C445.453 141.905 446.789 140.556 446.789 138.892V135.093C446.789 133.429 445.453 132.08 443.804 132.08Z" fill="white"/>
<path d="M443.804 147.321H440.041C438.392 147.321 437.056 148.67 437.056 150.334V154.133C437.056 155.797 438.392 157.146 440.041 157.146H443.804C445.453 157.146 446.789 155.797 446.789 154.133V150.334C446.789 148.67 445.453 147.321 443.804 147.321Z" fill="white"/>
<path d="M458.296 132.08H454.373C452.725 132.08 451.388 133.429 451.388 135.093V138.892C451.388 140.556 452.725 141.905 454.373 141.905H458.296C459.945 141.905 461.281 140.556 461.281 138.892V135.093C461.281 133.429 459.945 132.08 458.296 132.08Z" fill="white"/>
<path d="M458.296 147.321H454.373C452.725 147.321 451.388 148.67 451.388 150.334V154.133C451.388 155.797 452.725 157.146 454.373 157.146H458.296C459.945 157.146 461.281 155.797 461.281 154.133V150.334C461.281 148.67 459.945 147.321 458.296 147.321Z" fill="white"/>
<path d="M472.629 132.08H468.865C467.217 132.08 465.88 133.429 465.88 135.093V138.892C465.88 140.556 467.217 141.905 468.865 141.905H472.629C474.277 141.905 475.613 140.556 475.613 138.892V135.093C475.613 133.429 474.277 132.08 472.629 132.08Z" fill="white"/>
<path d="M472.629 147.321H468.865C467.217 147.321 465.88 148.67 465.88 150.334V154.133C465.88 155.797 467.217 157.146 468.865 157.146H472.629C474.277 157.146 475.613 155.797 475.613 154.133V150.334C475.613 148.67 474.277 147.321 472.629 147.321Z" fill="white"/>
<path d="M486.961 132.08H483.197C481.549 132.08 480.213 133.429 480.213 135.093V138.892C480.213 140.556 481.549 141.905 483.197 141.905H486.961C488.609 141.905 489.946 140.556 489.946 138.892V135.093C489.946 133.429 488.609 132.08 486.961 132.08Z" fill="white"/>
<path d="M442.631 100.22H442.631C441.526 100.22 440.63 101.124 440.63 102.239V112.627C440.63 113.742 441.526 114.646 442.631 114.646H442.631C443.736 114.646 444.632 113.742 444.632 112.627V102.239C444.632 101.124 443.736 100.22 442.631 100.22Z" fill="#3366FE"/>
<path d="M470.452 100.22H470.452C469.347 100.22 468.451 101.124 468.451 102.239V112.627C468.451 113.742 469.347 114.646 470.452 114.646H470.452C471.557 114.646 472.453 113.742 472.453 112.627V102.239C472.453 101.124 471.557 100.22 470.452 100.22Z" fill="#3366FE"/>
<path d="M456.541 100.22H456.541C455.436 100.22 454.541 101.124 454.541 102.239V112.627C454.541 113.742 455.436 114.646 456.541 114.646H456.541C457.646 114.646 458.542 113.742 458.542 112.627V102.239C458.542 101.124 457.646 100.22 456.541 100.22Z" fill="#3366FE"/>
<path d="M484.363 100.22H484.363C483.258 100.22 482.362 101.124 482.362 102.239V112.627C482.362 113.742 483.258 114.646 484.363 114.646H484.363C485.468 114.646 486.363 113.742 486.363 112.627V102.239C486.363 101.124 485.468 100.22 484.363 100.22Z" fill="#3366FE"/>
<path fill-rule="evenodd" clip-rule="evenodd" d="M503.505 148.994C509.193 154.735 509.193 164.044 503.505 169.785C497.817 175.527 488.595 175.527 482.907 169.785C477.22 164.044 477.22 154.735 482.907 148.994C488.595 143.252 497.817 143.252 503.505 148.994Z" fill="#3366FE"/>
<path d="M503.505 148.994C509.193 154.735 509.193 164.044 503.505 169.785C497.817 175.527 488.595 175.527 482.907 169.785C477.22 164.044 477.22 154.735 482.907 148.994C488.595 143.252 497.817 143.252 503.505 148.994Z" stroke="white" stroke-width="4" stroke-linecap="round" stroke-linejoin="round"/>
<path d="M499.031 163.868L493.231 160.375V152.848" stroke="white" stroke-width="4" stroke-linecap="round" stroke-linejoin="round"/>
<path d="M507.021 112.841C505.298 113.846 503.094 113.249 502.099 111.51C501.104 109.77 501.694 107.545 503.418 106.541C505.141 105.536 507.345 106.132 508.34 107.872C509.336 109.612 508.745 111.837 507.021 112.841Z" fill="#3366FE"/>
<path d="M507.145 124.074C507.145 124.977 506.419 125.71 505.524 125.71C504.629 125.71 503.903 124.977 503.903 124.074C503.903 123.17 504.629 122.438 505.524 122.438C506.419 122.438 507.145 123.17 507.145 124.074Z" fill="#E1E4E5"/>
<path d="M426.434 120.609C425.644 120.609 425.004 121.255 425.004 122.051C425.004 122.848 425.644 123.494 426.434 123.494C427.223 123.494 427.863 122.848 427.863 122.051C427.863 121.255 427.223 120.609 426.434 120.609Z" fill="#E1E4E5"/>
<path d="M411.38 156.579C412.906 156.579 414.143 157.828 414.143 159.368C414.143 160.908 412.906 162.157 411.38 162.157C409.854 162.157 408.617 160.908 408.617 159.368C408.617 157.828 409.854 156.579 411.38 156.579Z" fill="#E1E4E5"/>
<path d="M465.042 101.931C464.156 102.447 463.023 102.141 462.512 101.246C462 100.352 462.304 99.2082 463.19 98.6918C464.076 98.1755 465.209 98.4819 465.72 99.3763C466.232 100.271 465.928 101.414 465.042 101.931Z" fill="#E1E4E5"/>
<path d="M438.343 109.26C439.08 109.26 439.677 108.615 439.677 107.818C439.677 107.021 439.08 106.375 438.343 106.375C437.607 106.375 437.01 107.021 437.01 107.818C437.01 108.615 437.607 109.26 438.343 109.26Z" fill="#3366FE"/>
<path d="M512.893 139.861C510.941 138.723 508.446 139.398 507.319 141.368C506.193 143.338 506.861 145.856 508.813 146.994C510.764 148.131 513.259 147.456 514.386 145.486C515.512 143.516 514.844 140.998 512.893 139.861Z" fill="#3366FE"/>
<path d="M418.441 135.245C417.564 134.733 416.442 135.037 415.935 135.923C415.428 136.809 415.729 137.941 416.607 138.453C417.484 138.964 418.606 138.661 419.113 137.775C419.62 136.889 419.319 135.756 418.441 135.245Z" fill="#3366FE"/>
<path d="M423.575 148.885C422.786 148.885 422.146 148.24 422.146 147.443C422.146 146.646 422.786 146 423.575 146C424.365 146 425.005 146.646 425.005 147.443C425.005 148.24 424.365 148.885 423.575 148.885Z" fill="#E1E4E5"/>
<path d="M504.415 135.943C504.931 136.244 505.107 136.909 504.81 137.429C504.512 137.949 503.853 138.127 503.338 137.827C502.823 137.527 502.646 136.862 502.944 136.341C503.241 135.821 503.9 135.643 504.415 135.943Z" fill="#E1E4E5"/>
<path d="M415.667 115.8C417.351 115.8 418.716 114.465 418.716 112.818C418.716 111.172 417.351 109.837 415.667 109.837C413.983 109.837 412.618 111.172 412.618 112.818C412.618 114.465 413.983 115.8 415.667 115.8Z" fill="#E1E4E5"/>
<path d="M478.746 172.294C477.655 172.294 476.77 173.187 476.77 174.289C476.77 175.39 477.655 176.283 478.746 176.283C479.837 176.283 480.722 175.39 480.722 174.289C480.722 173.187 479.837 172.294 478.746 172.294Z" fill="#E1E4E5"/>
</g>
<defs>
<linearGradient id="paint0_linear_543_20564" x1="332.982" y1="512.243" x2="327.54" y2="-274.074" gradientUnits="userSpaceOnUse">
<stop stop-color="white"/>
<stop offset="1" stop-color="#EEEEEE"/>
</linearGradient>
<linearGradient id="paint1_linear_543_20564" x1="347.813" y1="369.624" x2="347.792" y2="317.918" gradientUnits="userSpaceOnUse">
<stop stop-color="white"/>
<stop offset="1" stop-color="#EEEEEE"/>
</linearGradient>
<linearGradient id="paint2_linear_543_20564" x1="73.7949" y1="161.684" x2="166.473" y2="38.2163" gradientUnits="userSpaceOnUse">
<stop stop-color="white"/>
<stop offset="1" stop-color="#EEEEEE"/>
</linearGradient>
<linearGradient id="paint3_linear_543_20564" x1="252.267" y1="341.272" x2="252.658" y2="307.187" gradientUnits="userSpaceOnUse">
<stop stop-color="white"/>
<stop offset="1" stop-color="#EEEEEE"/>
</linearGradient>
<linearGradient id="paint4_linear_543_20564" x1="279.326" y1="341.329" x2="279.716" y2="307.244" gradientUnits="userSpaceOnUse">
<stop stop-color="white"/>
<stop offset="1" stop-color="#EEEEEE"/>
</linearGradient>
<linearGradient id="paint5_linear_543_20564" x1="453.63" y1="56.6505" x2="478.803" y2="242.481" gradientUnits="userSpaceOnUse">
<stop stop-color="white"/>
<stop offset="1" stop-color="#EEEEEE"/>
</linearGradient>
<linearGradient id="paint6_linear_543_20564" x1="495.22" y1="125.095" x2="490.198" y2="197.515" gradientUnits="userSpaceOnUse">
<stop stop-color="white"/>
<stop offset="1" stop-color="#EEEEEE"/>
</linearGradient>
<linearGradient id="paint7_linear_543_20564" x1="421.29" y1="96.7499" x2="425.245" y2="176.926" gradientUnits="userSpaceOnUse">
<stop stop-color="white"/>
<stop offset="1" stop-color="#EEEEEE"/>
</linearGradient>
<clipPath id="clip0_543_20564">
<rect width="159" height="107" fill="white" transform="translate(383 81)"/>
</clipPath>
</defs>
</svg>
