<svg width="24" height="24" viewBox="0 0 24 24" fill="none" xmlns="http://www.w3.org/2000/svg">
<g id="Icon_24">
<path id="stat_minus_1" d="M12.0046 8C12.1731 8 12.3286 8.02881 12.4711 8.08644C12.6135 8.14434 12.7531 8.24471 12.8898 8.38755L19.7591 15.5789C19.9057 15.7321 19.9856 15.9185 19.9986 16.1381C20.0117 16.3576 19.9318 16.5577 19.7591 16.7382C19.5927 16.9127 19.4081 17 19.2054 17C19.0027 17 18.8181 16.9127 18.6516 16.7382L12.0046 9.78984L5.35758 16.7382C5.21122 16.8917 5.03315 16.9753 4.82339 16.9889C4.61363 17.0026 4.42252 16.919 4.25007 16.7382C4.08336 16.564 4 16.3707 4 16.1585C4 15.9463 4.08336 15.7531 4.25007 15.5789L11.1194 8.38755C11.2561 8.24471 11.3957 8.14434 11.5381 8.08644C11.6806 8.02881 11.8361 8 12.0046 8Z" fill="#909090"/>
</g>
</svg>
