<svg width="30" height="30" viewBox="0 0 30 30" fill="none" xmlns="http://www.w3.org/2000/svg">
<rect width="30" height="30" rx="15" fill="#76A5EA" fill-opacity="0.7"/>
<path d="M11.4009 11.8499C11.4009 10.9349 11.7644 10.0574 12.4114 9.41038C13.0584 8.76338 13.936 8.3999 14.8509 8.3999C15.7659 8.3999 16.6435 8.76338 17.2905 9.41038C17.9375 10.0574 18.3009 10.9349 18.3009 11.8499C18.3009 12.7649 17.9375 13.6424 17.2905 14.2894C16.6435 14.9364 15.7659 15.2999 14.8509 15.2999C13.936 15.2999 13.0584 14.9364 12.4114 14.2894C11.7644 13.6424 11.4009 12.7649 11.4009 11.8499ZM14.7297 16.2065C14.7556 16.2026 14.7816 16.2004 14.8077 16.1999H14.8941C14.9205 16.1999 14.9465 16.2021 14.9721 16.2065L19.3491 16.9763L19.3719 16.9811C20.1783 17.1671 21.0447 17.6789 21.2133 18.6731L21.2157 18.6905L21.2841 19.2167V19.2179C21.4425 20.4233 20.4867 21.2999 19.3581 21.2999C19.3332 21.2994 19.3084 21.2974 19.2837 21.2939H10.3437C9.21515 21.2939 8.25875 20.4167 8.41775 19.2107L8.48615 18.6893L8.48915 18.6713C8.65715 17.6951 9.53075 17.1545 10.3353 16.9799L10.3527 16.9763L14.7297 16.2065Z" fill="white"/>
</svg>
